<?xml version="1.0" standalone="no"?>
<!DOCTYPE svg PUBLIC "-//W3C//DTD SVG 20010904//EN"
 "http://www.w3.org/TR/2001/REC-SVG-20010904/DTD/svg10.dtd">
<svg version="1.0" xmlns="http://www.w3.org/2000/svg"
 width="700.000000pt" height="700.000000pt" viewBox="0 0 700.000000 700.000000"
 preserveAspectRatio="xMidYMid meet">
<metadata>
Created by potrace 1.11, written by Peter Selinger 2001-2013
</metadata>
<g transform="translate(0.000000,700.000000) scale(0.100000,-0.100000)"
fill="#000000" stroke="none">
<path d="M3893 5739 c-13 -5 -23 -14 -24 -21 -1 -16 -6 -47 -19 -113 -5 -27
-12 -68 -15 -90 -4 -22 -13 -76 -21 -119 -8 -44 -12 -87 -9 -97 7 -23 73 -35
91 -17 7 7 15 29 18 48 3 19 8 46 10 60 3 14 7 41 10 60 3 19 10 58 15 85 5
28 12 70 16 95 3 25 8 52 10 60 10 33 -42 64 -82 49z"/>
<path d="M3418 5733 c-14 -2 -29 -11 -32 -19 -7 -17 108 -410 125 -431 6 -7
14 -11 18 -8 4 2 20 6 36 9 15 3 33 10 38 15 7 7 -11 82 -54 223 -69 229 -65
222 -131 211z"/>
<path d="M5665 5565 c-55 -18 -101 -33 -103 -33 -5 -1 -177 -53 -202 -62 -47
-17 -320 -101 -327 -102 -5 0 -19 -5 -33 -10 -25 -10 -488 -156 -585 -185 -27
-8 -75 -23 -105 -33 -30 -10 -116 -37 -190 -60 -253 -79 -270 -86 -270 -116 0
-8 23 -83 50 -167 28 -84 50 -163 50 -175 0 -21 -8 -27 -65 -48 -165 -58 -244
-84 -262 -84 -28 0 -32 8 -78 145 -66 196 -75 215 -99 221 -18 4 -573 -160
-726 -216 -14 -5 -79 -25 -145 -45 -177 -54 -311 -103 -390 -142 -392 -195
-682 -517 -833 -923 -75 -201 -101 -356 -99 -591 l2 -167 -85 -27 c-47 -15
-101 -38 -120 -50 -48 -30 -98 -89 -124 -144 -28 -61 -29 -186 -3 -251 41
-100 131 -174 237 -196 68 -14 112 -9 209 22 42 13 81 24 87 24 6 0 28 -28 49
-62 217 -355 571 -619 975 -728 25 -7 56 -14 70 -17 14 -2 45 -9 70 -14 147
-33 408 -31 590 5 102 20 102 21 211 54 492 154 895 555 1058 1053 27 83 45
150 56 214 2 11 7 34 10 50 18 99 23 303 11 420 -15 149 -53 313 -82 360 -7
11 -26 55 -42 97 l-30 76 27 7 c26 6 428 133 506 160 22 7 135 43 250 80 116
37 323 103 460 147 138 44 306 98 375 119 69 22 145 48 170 57 42 17 45 21 44
53 -1 26 -98 348 -154 509 -5 14 -43 133 -85 265 -151 475 -167 520 -183 533
-22 17 -33 15 -147 -23z m-2595 -1691 c366 -77 638 -330 731 -679 23 -86 32
-301 16 -400 -28 -180 -154 -404 -292 -520 -140 -118 -260 -176 -460 -222 -11
-2 -72 -6 -135 -7 -259 -7 -493 86 -675 270 -361 363 -361 938 0 1299 139 140
329 238 505 261 25 3 47 8 48 9 10 9 206 1 262 -11z m-1768 -1300 c15 -8 40
-31 55 -51 23 -30 28 -46 28 -93 -1 -47 -6 -64 -28 -94 -66 -86 -183 -93 -254
-15 -123 134 35 335 199 253z"/>
<path d="M2859 3616 c-2 -2 -27 -6 -54 -10 -223 -26 -433 -201 -510 -423 -127
-364 81 -752 455 -850 75 -19 231 -21 300 -4 222 58 391 208 469 417 29 76 36
128 35 244 -4 277 -199 527 -469 601 -65 17 -216 34 -226 25z"/>
<path d="M2991 5459 c-38 -40 -33 -50 57 -123 37 -29 109 -88 161 -130 52 -42
97 -76 102 -76 4 0 21 11 38 25 32 27 32 46 2 75 -27 26 -275 226 -303 244
-26 17 -27 17 -57 -15z"/>
</g>
</svg>
