<svg id="Layer_1" data-name="Layer 1" xmlns="http://www.w3.org/2000/svg" viewBox="0 0 89.47 28.86"><defs><style>.cls-1{fill:#ec2d29;}.cls-2{fill:#282827;}.cls-3{fill:#010101;}</style></defs><path class="cls-1" d="M1.1,28.66l.45-2.85L4.67,3.58,5,.73h6.8l-.45,2.85L8.64,23.07H17l-.79,5.59Z" transform="translate(-1.1 -0.26)"/><path class="cls-1" d="M56.84,10.61H50.17l0-.35c.4-2.81.61-4.33-1.27-4.33s-2.09,1.52-2.49,4.33l-1.24,8.87c-.45,3.2-.67,4.72,1.39,4.72,2.28,0,2.54-1.79,2.79-3.63l.23-1.64H47l.73-5.15h8.72L54.3,28.66H52.38l-.93-2h0a9.3,9.3,0,0,1-6.48,2.47c-7.38,0-6.91-6.53-6.25-11.25l.89-6.33C40.3,6.4,41.38.26,49.88.26c7.65,0,7.71,5,7,10.08Z" transform="translate(-1.1 -0.26)"/><path class="cls-1" d="M31.42.73H22.2l-.36,2.85L18.72,25.81l-.45,2.85h6.8l.36-2.85,1.25-8.87h.94c2.1,0,2.64.94,2.32,3.2l-.78,5.55a5.84,5.84,0,0,0,.12,3h6.44l.06-.39a9.83,9.83,0,0,1,.09-3.87l.6-4.26c.45-3.2-.74-5.58-3-6.13v-.08c2.47-1,4.15-2.18,4.7-6.09l0-.2C38.85,3.19,36.69.73,31.42.73ZM31,7.89a3,3,0,0,1,.31.45A3.33,3.33,0,0,1,26,12.27l-.33.2a.57.57,0,0,1-.6-1l.33-.2a3.33,3.33,0,0,1,1.37-4.06L33,3.41l1.44,2.38Z" transform="translate(-1.1 -0.26)"/><path class="cls-2" d="M61.82,7.72V2.38h1.34V6.65H64.8V7.72Z" transform="translate(-1.1 -0.26)"/><path class="cls-2" d="M66.71,7.81c-1.65,0-1.7-1.19-1.7-2.15V4.45c0-1,0-2.16,1.7-2.16S68.4,3.37,68.4,4.45V5.66C68.4,6.73,68.35,7.81,66.71,7.81ZM66.34,5.9c0,.54,0,.83.37.83s.37-.29.37-.83V4.2c0-.53,0-.83-.37-.83s-.37.3-.37.83Z" transform="translate(-1.1 -0.26)"/><path class="cls-2" d="M69.06,7.18V2.38h1.09L71.3,4.93h0V2.38h1.24V7.72h-1.1L70.32,5.18h0V7.72H69.05Z" transform="translate(-1.1 -0.26)"/><path class="cls-2" d="M76.8,6.11c0,.92-.32,1.61-1.62,1.61H73.41V2.38h1.77c1.27,0,1.6.61,1.62,1.61ZM75.48,4.05c0-.37,0-.6-.43-.6h-.31v3.2h.31c.42,0,.43-.23.43-.6Z" transform="translate(-1.1 -0.26)"/><path class="cls-2" d="M79.06,7.81c-1.65,0-1.69-1.19-1.69-2.15V4.45c0-1,0-2.16,1.69-2.16s1.69,1.08,1.69,2.16V5.66C80.75,6.73,80.71,7.81,79.06,7.81ZM78.69,5.9c0,.54,0,.83.37.83s.37-.29.37-.83V4.2c0-.53,0-.83-.37-.83s-.37.3-.37.83Z" transform="translate(-1.1 -0.26)"/><path class="cls-2" d="M81.41,7.18V2.38h1.09l1.17,2.55h0V2.38h1.25V7.72H83.83L82.67,5.18h0V7.72H81.4Z" transform="translate(-1.1 -0.26)"/><path class="cls-2" d="M65.17,10.8A1.05,1.05,0,0,1,64.41,12v0a1.1,1.1,0,0,1,.76,1.17V14a2,2,0,0,0,.08.74v.07H64a1.24,1.24,0,0,1-.1-.57V13.15c0-.43-.13-.61-.55-.61h-.18v2.24H61.82V9.44h1.81c1,0,1.54.47,1.54,1.32Zm-2,.73h.24c.35,0,.48-.16.48-.51v-.09c0-.35-.13-.49-.48-.49h-.24Z" transform="translate(-1.1 -0.26)"/><path class="cls-2" d="M67.13,12.63v1.08h1.6v1.07H65.8V9.44h2.91v1.07H67.13v1.05h1.41v1.07Z" transform="translate(-1.1 -0.26)"/><path class="cls-2" d="M70.62,12.63v2.15H69.29V9.44h2.87v1.07H70.62v1.05H72v1.07Z" transform="translate(-1.1 -0.26)"/><path class="cls-2" d="M74,12.63v1.08h1.6v1.07H72.67V9.44h2.91v1.07H74v1.05h1.41v1.07Z" transform="translate(-1.1 -0.26)"/><path class="cls-2" d="M79.52,10.8A1.05,1.05,0,0,1,78.76,12v0a1.1,1.1,0,0,1,.76,1.17V14a1.83,1.83,0,0,0,.09.74v.07H78.34a1.11,1.11,0,0,1-.11-.57V13.15c0-.43-.13-.61-.54-.61H77.5v2.24H76.17V9.44H78c1,0,1.53.47,1.53,1.32Zm-2,.73h.24c.35,0,.48-.16.48-.51v-.09c0-.35-.13-.49-.48-.49H77.5Z" transform="translate(-1.1 -0.26)"/><path class="cls-2" d="M81.48,12.63v1.08h1.6v1.07H80.15V9.44h2.91v1.07H81.48v1.05h1.41v1.07Z" transform="translate(-1.1 -0.26)"/><path class="cls-2" d="M85,12.63v1.08h1.6v1.07H83.65V9.44h2.9v1.07H85v1.05h1.41v1.07Z" transform="translate(-1.1 -0.26)"/><path class="cls-2" d="M88.09,12.84v.31c0,.5.26.74.65.74a.47.47,0,0,0,.52-.49c0-.33-.22-.53-.76-.85l-.58-.33A1.46,1.46,0,0,1,87,10.87a1.73,1.73,0,0,1,3.45.13v.22H89.32v-.14c0-.52-.22-.75-.59-.75s-.5.15-.5.44.08.36.69.69l.59.33a1.71,1.71,0,0,1,1.06,1.53c0,1-.68,1.55-1.75,1.55s-1.94-.46-1.94-1.64v-.39Z" transform="translate(-1.1 -0.26)"/><path class="cls-2" d="M65.19,18.06H63.88V18c0-.54,0-.83-.37-.83s-.37.29-.37.83v1.69c0,.61,0,.91.4.91s.45-.35.45-.7v-.31h-.52v-1h1.72v2.91h-.38l-.23-.38h0a1.63,1.63,0,0,1-1.21.47c-1.45,0-1.54-1.24-1.54-2.15V18.24c0-1,0-2.16,1.72-2.16,1.5,0,1.65,1,1.65,1.93Z" transform="translate(-1.1 -0.26)"/><path class="cls-2" d="M69.3,17.53a1.07,1.07,0,0,1-.76,1.17h0a1.11,1.11,0,0,1,.76,1.18v.81a2,2,0,0,0,.08.74v.07H68.12A1.09,1.09,0,0,1,68,21V19.89c0-.44-.13-.62-.55-.62h-.18v2.24H66V16.17h1.81c1,0,1.54.47,1.54,1.33Zm-2,.74h.24c.35,0,.48-.16.48-.51v-.1c0-.35-.13-.49-.48-.49h-.24Z" transform="translate(-1.1 -0.26)"/><path class="cls-2" d="M71.52,21.6c-1.64,0-1.69-1.19-1.69-2.15V18.24c0-1,0-2.16,1.69-2.16s1.69,1.09,1.69,2.16v1.21C73.21,20.52,73.17,21.6,71.52,21.6Zm-.37-1.91c0,.54,0,.83.37.83s.37-.29.37-.83V18c0-.54,0-.83-.37-.83s-.37.29-.37.83Z" transform="translate(-1.1 -0.26)"/><path class="cls-2" d="M77.19,16.17V20.1c0,1-.59,1.5-1.66,1.5s-1.69-.53-1.69-1.5V16.17h1.34v3.89c0,.3.08.46.37.46s.37-.16.37-.46V16.17Z" transform="translate(-1.1 -0.26)"/><path class="cls-2" d="M81.3,18.06c0,.86-.48,1.37-1.52,1.37h-.5v2.08H78V16.17h1.83c1,0,1.52.47,1.52,1.33Zm-2,.35h.24c.35,0,.48-.15.48-.5v-.25c0-.35-.13-.49-.48-.49h-.24Z" transform="translate(-1.1 -0.26)"/><path class="cls-3" d="M62.78,27.22v.72h.91v.72H62V25.08h1.65v.71h-.9v.71h.8v.72Z" transform="translate(-1.1 -0.26)"/><path class="cls-3" d="M64.93,27.36v.21c0,.33.14.49.36.49s.3-.13.3-.33-.13-.35-.43-.56l-.33-.23a1,1,0,0,1-.51-.91.93.93,0,0,1,1-1c.52,0,1,.31,1,1.1v.15h-.66v-.1c0-.34-.12-.5-.33-.5A.26.26,0,0,0,65,26c0,.12,0,.24.39.47l.33.22a1.17,1.17,0,0,1,.6,1,.93.93,0,0,1-1,1,1,1,0,0,1-1.1-1.1v-.26Z" transform="translate(-1.1 -0.26)"/><path class="cls-3" d="M68.14,25.79v2.87h-.76V25.79h-.65v-.71h2.05v.71Z" transform="translate(-1.1 -0.26)"/><path class="cls-3" d="M68.94,27.64h.7v1h-.7Z" transform="translate(-1.1 -0.26)"/><path class="cls-3" d="M72.09,28v0h1.19v.67H71.42V28a3.46,3.46,0,0,0,1.11-2c0-.23-.07-.33-.23-.33s-.28.13-.28.54v.17h-.59v-.17c0-.92.48-1.19.93-1.19a.9.9,0,0,1,.91,1C73.27,26.88,72.64,27.4,72.09,28Z" transform="translate(-1.1 -0.26)"/><path class="cls-3" d="M74.88,28.72c-1,0-1-.8-1-1.44v-.82c0-.64,0-1.44,1-1.44s1,.72,1,1.44v.82C75.84,28,75.84,28.72,74.88,28.72Zm-.21-1.2c0,.36,0,.55.21.55s.21-.19.21-.55v-1.3c0-.36,0-.56-.21-.56s-.21.2-.21.56Z" transform="translate(-1.1 -0.26)"/><path class="cls-3" d="M77.48,28.72c-1,0-1-.8-1-1.44v-.82c0-.64,0-1.44,1-1.44s1,.72,1,1.44v.82C78.44,28,78.44,28.72,77.48,28.72Zm-.21-1.2c0,.36,0,.55.21.55s.21-.19.21-.55v-1.3c0-.36,0-.56-.21-.56s-.21.2-.21.56Z" transform="translate(-1.1 -0.26)"/><path class="cls-3" d="M79.45,28.66a5.06,5.06,0,0,1,0-.54,4,4,0,0,1,.68-2.38H79v-.66h1.84v.57a3.05,3.05,0,0,0-.63,2.19c0,.24,0,.51,0,.82Z" transform="translate(-1.1 -0.26)"/></svg>