<svg xmlns="http://www.w3.org/2000/svg" viewBox="0 0 145.75 42.37"><defs><style>.cls-1{fill:#ed2927;}.cls-2{fill:#fff;}</style></defs><g id="Layer_2" data-name="Layer 2"><g id="Layer_1-2" data-name="Layer 1"><path class="cls-1" d="M21.84,34.7l2.25-6.39H29L26.64,41.67H0l.74-5.05,4.15-1.4,4-27.72L5.21,5.81,5.9,1l16-.29-.74,5.11L16.86,7.5l-4,27.2Z"/><path class="cls-1" d="M80.36,42.37c-8.51,0-14-5.64-14-15.17,0-16,8.83-27.2,21.06-27.2a29.16,29.16,0,0,1,11.7,2.73L97.44,13.08H93l-.69-4.83a21.45,21.45,0,0,0-6-1c-7.28,0-11.54,9.06-11.54,18.3,0,6.22,3,9.6,7.66,9.6a15.5,15.5,0,0,0,5.9-1.11l1.17-7.61-4-1.34.69-4.65,14.94-.29-.69,4.94-3.78,1.34L95.1,38.25A28.42,28.42,0,0,1,80.36,42.37Z"/><path class="cls-2" d="M112.21,4.71V9.8h1.2v1.27h-3.17V4.71Z"/><path class="cls-2" d="M118.11,7.69V9a4.25,4.25,0,0,1-.09,1,1.25,1.25,0,0,1-.36.61A1.62,1.62,0,0,1,117,11a3.28,3.28,0,0,1-1,.14,4,4,0,0,1-1.06-.12,1.42,1.42,0,0,1-.68-.35,1.2,1.2,0,0,1-.34-.56,3.53,3.53,0,0,1-.11-1V7.8A2.84,2.84,0,0,1,114,6.67a1.43,1.43,0,0,1,.67-.66,2.83,2.83,0,0,1,1.25-.25,3.48,3.48,0,0,1,1.09.16,1.86,1.86,0,0,1,.71.42,1.46,1.46,0,0,1,.34.52A2.84,2.84,0,0,1,118.11,7.69Zm-1.89-.39a1.64,1.64,0,0,0,0-.51.23.23,0,0,0-.22-.1c-.12,0-.19,0-.23.1a1.3,1.3,0,0,0-.06.51V9.65a1.18,1.18,0,0,0,.06.48.21.21,0,0,0,.22.11c.11,0,.19,0,.22-.1a1,1,0,0,0,.06-.44Z"/><path class="cls-2" d="M120.66,5.86l0,.48a1.31,1.31,0,0,1,.51-.43,1.66,1.66,0,0,1,1.48,0,.84.84,0,0,1,.4.48,3.74,3.74,0,0,1,.09,1v3.65h-1.9V7.46a2.81,2.81,0,0,0,0-.66c0-.07-.1-.11-.23-.11s-.22,0-.25.13a2.49,2.49,0,0,0-.06.73v3.52h-1.89V5.86Z"/><path class="cls-2" d="M128.05,4.71v6.36h-1.89V10.7a2.14,2.14,0,0,1-.57.35,1.68,1.68,0,0,1-.63.12,1.43,1.43,0,0,1-.76-.2.89.89,0,0,1-.42-.45,2.7,2.7,0,0,1-.09-.83V7.25a2.77,2.77,0,0,1,.09-.85A.89.89,0,0,1,124.2,6a1.61,1.61,0,0,1,.78-.19,1.93,1.93,0,0,1,.65.11,1.71,1.71,0,0,1,.53.32V4.71Zm-1.89,2.46a.79.79,0,0,0-.06-.38.24.24,0,0,0-.23-.1.26.26,0,0,0-.23.09.79.79,0,0,0-.06.39V9.73a.88.88,0,0,0,.06.41.23.23,0,0,0,.22.1c.12,0,.2,0,.24-.11a1.45,1.45,0,0,0,.06-.55Z"/><path class="cls-2" d="M133,7.69V9a5,5,0,0,1-.08,1,1.43,1.43,0,0,1-.36.61,1.68,1.68,0,0,1-.71.42,3.35,3.35,0,0,1-1,.14,4,4,0,0,1-1.06-.12,1.42,1.42,0,0,1-.68-.35,1.28,1.28,0,0,1-.34-.56,3.6,3.6,0,0,1-.1-1V7.8a2.87,2.87,0,0,1,.18-1.13,1.45,1.45,0,0,1,.68-.66,2.79,2.79,0,0,1,1.24-.25,3.55,3.55,0,0,1,1.1.16,1.81,1.81,0,0,1,.7.42,1.33,1.33,0,0,1,.34.52A2.84,2.84,0,0,1,133,7.69Zm-1.89-.39a1.64,1.64,0,0,0-.05-.51.23.23,0,0,0-.22-.1.24.24,0,0,0-.23.1,1.64,1.64,0,0,0-.05.51V9.65a1.49,1.49,0,0,0,.05.48.21.21,0,0,0,.22.11c.12,0,.19,0,.23-.1a1.28,1.28,0,0,0,.05-.44Z"/><path class="cls-2" d="M135.56,5.86l0,.48a1.28,1.28,0,0,1,.5-.43,1.52,1.52,0,0,1,.69-.15,1.44,1.44,0,0,1,.79.2.84.84,0,0,1,.4.48,3.74,3.74,0,0,1,.09,1v3.65h-1.89V7.46a3.56,3.56,0,0,0,0-.66c0-.07-.11-.11-.24-.11s-.22,0-.25.13a3.16,3.16,0,0,0-.05.73v3.52h-1.89V5.86Z"/><path class="cls-2" d="M110.35,13.82h1.4a12.75,12.75,0,0,1,1.89.09,1.32,1.32,0,0,1,.8.47,1.79,1.79,0,0,1,.31,1.18,1.58,1.58,0,0,1-.22,1,1.26,1.26,0,0,1-.86.31,1.6,1.6,0,0,1,.78.32.85.85,0,0,1,.25.38,4.36,4.36,0,0,1,0,.94v1.68h-1.83V18.07a1.16,1.16,0,0,0-.1-.63c-.06-.08-.23-.12-.5-.12v2.87h-2Zm2,1.09v1.42a1,1,0,0,0,.47-.08c.09-.05.13-.22.13-.5V15.4c0-.2,0-.33-.13-.39A.76.76,0,0,0,112.32,14.91Z"/><path class="cls-2" d="M119.74,17.67H117.3V18.8a1.1,1.1,0,0,0,.06.46.25.25,0,0,0,.23.1.31.31,0,0,0,.29-.14,1.22,1.22,0,0,0,.07-.52V18h1.79v.38a2.92,2.92,0,0,1-.07.75,1.4,1.4,0,0,1-.34.55,1.49,1.49,0,0,1-.67.44,3.07,3.07,0,0,1-1,.15,3.73,3.73,0,0,1-1.06-.14,1.83,1.83,0,0,1-.72-.4,1.46,1.46,0,0,1-.35-.56,3.25,3.25,0,0,1-.1-.89V16.77a2.35,2.35,0,0,1,.22-1.08,1.45,1.45,0,0,1,.72-.6,3.44,3.44,0,0,1,2.47,0,1.5,1.5,0,0,1,.73.67,2.7,2.7,0,0,1,.2,1.18Zm-1.89-.85v-.38a1.77,1.77,0,0,0,0-.52.21.21,0,0,0-.21-.12c-.14,0-.22,0-.25.1a1.94,1.94,0,0,0,0,.54v.38Z"/><path class="cls-2" d="M122.78,13.82v.81a3,3,0,0,0-.7,0c-.07,0-.1.12-.1.26v.17h.8v.82h-.45v4.27h-1.9V15.92h-.38V15.1h.38a3.16,3.16,0,0,1,0-.69.51.51,0,0,1,.2-.31,1.21,1.21,0,0,1,.47-.21,5,5,0,0,1,.93-.07Z"/><path class="cls-2" d="M127.42,17.67H125V18.8a1.1,1.1,0,0,0,.06.46.27.27,0,0,0,.24.1.28.28,0,0,0,.28-.14,1.18,1.18,0,0,0,.08-.52V18h1.79v.38a2.92,2.92,0,0,1-.07.75,1.4,1.4,0,0,1-.34.55,1.52,1.52,0,0,1-.68.44,3,3,0,0,1-1,.15,3.66,3.66,0,0,1-1-.14,1.76,1.76,0,0,1-.72-.4,1.35,1.35,0,0,1-.35-.56,2.9,2.9,0,0,1-.1-.89V16.77a2.23,2.23,0,0,1,.22-1.08,1.45,1.45,0,0,1,.72-.6,3,3,0,0,1,1.15-.21,3,3,0,0,1,1.32.25,1.52,1.52,0,0,1,.72.67,2.68,2.68,0,0,1,.21,1.18Zm-1.89-.85v-.38a1.39,1.39,0,0,0-.06-.52.2.2,0,0,0-.21-.12c-.13,0-.21,0-.24.1a1.79,1.79,0,0,0,0,.54v.38Z"/><path class="cls-2" d="M129.93,15l-.07.69a1.39,1.39,0,0,1,1.19-.78v1.83a1.78,1.78,0,0,0-.76.12.51.51,0,0,0-.3.33,4.63,4.63,0,0,0-.06,1v2.06H128V15Z"/><path class="cls-2" d="M135.76,17.67h-2.45V18.8a1.1,1.1,0,0,0,.06.46.27.27,0,0,0,.23.1.3.3,0,0,0,.29-.14,1.22,1.22,0,0,0,.07-.52V18h1.8v.38a2.84,2.84,0,0,1-.08.75,1.36,1.36,0,0,1-.33.55,1.57,1.57,0,0,1-.68.44,3,3,0,0,1-1,.15,3.78,3.78,0,0,1-1.06-.14,1.79,1.79,0,0,1-.71-.4,1.49,1.49,0,0,1-.36-.56,3.32,3.32,0,0,1-.09-.89V16.77a2.23,2.23,0,0,1,.22-1.08,1.37,1.37,0,0,1,.72-.6,3.41,3.41,0,0,1,2.46,0,1.5,1.5,0,0,1,.73.67,2.68,2.68,0,0,1,.21,1.18Zm-1.9-.85v-.38a1.77,1.77,0,0,0-.05-.52.21.21,0,0,0-.21-.12c-.13,0-.21,0-.25.1a1.94,1.94,0,0,0,0,.54v.38Z"/><path class="cls-2" d="M140.66,17.67h-2.45V18.8a1.1,1.1,0,0,0,.06.46.27.27,0,0,0,.24.1.31.31,0,0,0,.29-.14,1.41,1.41,0,0,0,.07-.52V18h1.79v.38a2.92,2.92,0,0,1-.07.75,1.4,1.4,0,0,1-.34.55,1.52,1.52,0,0,1-.68.44,3,3,0,0,1-1,.15,3.66,3.66,0,0,1-1-.14,1.76,1.76,0,0,1-.72-.4,1.35,1.35,0,0,1-.35-.56,2.9,2.9,0,0,1-.1-.89V16.77a2.23,2.23,0,0,1,.22-1.08,1.45,1.45,0,0,1,.72-.6,3,3,0,0,1,1.15-.21,3,3,0,0,1,1.32.25,1.52,1.52,0,0,1,.72.67,2.68,2.68,0,0,1,.21,1.18Zm-1.9-.85v-.38a1.47,1.47,0,0,0,0-.52.2.2,0,0,0-.21-.12c-.13,0-.21,0-.24.1a1.79,1.79,0,0,0,0,.54v.38Z"/><path class="cls-2" d="M145.14,16.64h-1.67v-.29a1.27,1.27,0,0,0-.05-.45c0-.07-.12-.1-.25-.1a.32.32,0,0,0-.24.09.4.4,0,0,0-.08.26,1.49,1.49,0,0,0,0,.36.67.67,0,0,0,.24.24,6,6,0,0,0,.82.39,3,3,0,0,1,1.08.64,1.31,1.31,0,0,1,.26.87,1.91,1.91,0,0,1-.2,1,1.29,1.29,0,0,1-.66.5,3.24,3.24,0,0,1-1.11.17,3.46,3.46,0,0,1-1.23-.19,1.28,1.28,0,0,1-.71-.51,2,2,0,0,1-.19-1v-.25h1.68v.33a1.49,1.49,0,0,0,.06.54.25.25,0,0,0,.25.13.35.35,0,0,0,.28-.09c.06-.05.08-.17.08-.35s0-.41-.1-.47a9.62,9.62,0,0,0-1.1-.56,2.36,2.36,0,0,1-1-.71,1.55,1.55,0,0,1-.18-.76,1.59,1.59,0,0,1,.2-.92A1.19,1.19,0,0,1,142,15a3.35,3.35,0,0,1,1.1-.16,3.58,3.58,0,0,1,1.05.13,1.58,1.58,0,0,1,.66.35.8.8,0,0,1,.28.4,2.08,2.08,0,0,1,0,.58Z"/><path class="cls-2" d="M114.87,25.53h-2V25a3,3,0,0,0-.05-.69c0-.09-.13-.13-.27-.13a.26.26,0,0,0-.25.11,1.79,1.79,0,0,0-.06.61v3a1.7,1.7,0,0,0,.06.57.26.26,0,0,0,.26.13.3.3,0,0,0,.3-.15,1.59,1.59,0,0,0,.07-.6V27.1h-.39v-1h2.3v3.42h-1.23l-.19-.46a1.24,1.24,0,0,1-.5.44,1.67,1.67,0,0,1-.73.15,2.25,2.25,0,0,1-.93-.2,1.74,1.74,0,0,1-.66-.5,1.48,1.48,0,0,1-.28-.63,6,6,0,0,1-.06-1v-1.9a5.19,5.19,0,0,1,.12-1.32,1.4,1.4,0,0,1,.67-.76,2.69,2.69,0,0,1,1.44-.34,3.07,3.07,0,0,1,1.44.3,1.46,1.46,0,0,1,.74.71,3.09,3.09,0,0,1,.17,1.19Z"/><path class="cls-2" d="M117.47,24.33l-.07.69a1.35,1.35,0,0,1,1.19-.78v1.83a1.82,1.82,0,0,0-.76.12.54.54,0,0,0-.3.33,4.63,4.63,0,0,0-.06,1v2.06h-1.89V24.33Z"/><path class="cls-2" d="M123.3,26.16v1.28a4.25,4.25,0,0,1-.09,1,1.43,1.43,0,0,1-.36.61,1.64,1.64,0,0,1-.71.43,3.35,3.35,0,0,1-1,.13,4.1,4.1,0,0,1-1.07-.12,1.46,1.46,0,0,1-.67-.34,1.3,1.3,0,0,1-.35-.57,3.56,3.56,0,0,1-.1-1V26.28a2.7,2.7,0,0,1,.19-1.14,1.43,1.43,0,0,1,.67-.66,2.81,2.81,0,0,1,1.25-.24,3.5,3.5,0,0,1,1.09.15,1.81,1.81,0,0,1,.7.42,1.36,1.36,0,0,1,.34.53A2.41,2.41,0,0,1,123.3,26.16Zm-1.9-.39a1.37,1.37,0,0,0-.05-.51c0-.07-.11-.1-.22-.1s-.19,0-.22.1a1.3,1.3,0,0,0-.06.51v2.35a1.28,1.28,0,0,0,.06.49.22.22,0,0,0,.22.11.25.25,0,0,0,.22-.1,1.32,1.32,0,0,0,.05-.44Z"/><path class="cls-2" d="M128.25,24.33v5.22h-1.92l0-.44a1.19,1.19,0,0,1-.49.4,1.53,1.53,0,0,1-.66.13,1.85,1.85,0,0,1-.71-.12,1,1,0,0,1-.41-.34,1,1,0,0,1-.17-.43,8.46,8.46,0,0,1,0-.9V24.33h1.89v3.55a2.86,2.86,0,0,0,0,.72q0,.12.24.12c.14,0,.22,0,.25-.12a4.45,4.45,0,0,0,0-.76V24.33Z"/><path class="cls-2" d="M130.86,24.33l0,.46a1.68,1.68,0,0,1,.56-.42,1.59,1.59,0,0,1,.66-.13,1.47,1.47,0,0,1,.77.19,1,1,0,0,1,.4.46,3.57,3.57,0,0,1,.08.88V28a3.79,3.79,0,0,1-.1,1,.89.89,0,0,1-.42.48,1.49,1.49,0,0,1-.75.18,1.44,1.44,0,0,1-.65-.14,1.76,1.76,0,0,1-.55-.41v1.2h-1.89v-6Zm.53,1.52a2.25,2.25,0,0,0,0-.59c0-.07-.1-.1-.23-.1s-.21,0-.24.12a1.62,1.62,0,0,0-.06.57V28a1.72,1.72,0,0,0,.06.59.24.24,0,0,0,.24.12c.12,0,.2,0,.23-.11a1.89,1.89,0,0,0,0-.53Z"/><path class="cls-2" d="M106.71,33.67h.42V35h1.72V33.67h.41v3.18h-.41v-1.5h-1.72v1.5h-.42Z"/><path class="cls-2" d="M109.83,35.26A1.66,1.66,0,1,1,111.49,37,1.61,1.61,0,0,1,109.83,35.26Zm2.88,0a1.23,1.23,0,1,0-1.22,1.33A1.24,1.24,0,0,0,112.71,35.26Z"/><path class="cls-2" d="M113.55,35.26a1.6,1.6,0,0,1,1.66-1.66,1.9,1.9,0,0,1,1.09.33v.44a1.57,1.57,0,0,0-1.09-.41,1.31,1.31,0,0,0,0,2.61,1.58,1.58,0,0,0,1.09-.42v.44a1.9,1.9,0,0,1-1.09.33A1.6,1.6,0,0,1,113.55,35.26Z"/><path class="cls-2" d="M116.88,33.67h.42v1.51l1.45-1.51h.48l-1.49,1.52,1.69,1.66h-.55l-1.58-1.56v1.56h-.42Z"/><path class="cls-2" d="M119.75,33.67h1.89V34h-1.47v1h1.21v.35h-1.21V36.5h1.47v.35h-1.89Z"/><path class="cls-2" d="M123.14,35.58l-1.22-1.91h.45l1,1.56,1-1.56h.43l-1.22,1.91v1.27h-.42Z"/><path class="cls-2" d="M126.06,33.67h1a.89.89,0,0,1,1,.93.85.85,0,0,1-.64.89l.94,1.36h-.48l-.9-1.31h-.55v1.31h-.42Zm1,1.51a.58.58,0,1,0,0-1.16h-.61v1.16Z"/><path class="cls-2" d="M128.78,33.67h1.89V34H129.2v1h1.21v.35H129.2V36.5h1.47v.35h-1.89Z"/><path class="cls-2" d="M131.28,33.67h1.89V34H131.7v1h1.21v.35H131.7v1.5h-.42Z"/><path class="cls-2" d="M133.6,33.67h1.89V34H134v1h1.22v.35H134V36.5h1.48v.35H133.6Z"/><path class="cls-2" d="M136.1,33.67h1a.9.9,0,0,1,1,.93.85.85,0,0,1-.64.89l.94,1.36H138l-.9-1.31h-.55v1.31h-.42Zm1,1.51a.58.58,0,1,0,0-1.16h-.61v1.16Z"/><path class="cls-2" d="M138.82,33.67h1.89V34h-1.47v1h1.21v.35h-1.21V36.5h1.47v.35h-1.89Z"/><path class="cls-2" d="M141.32,33.67h1.89V34h-1.47v1H143v.35h-1.21V36.5h1.47v.35h-1.89Z"/><path class="cls-2" d="M143.66,36.54l.1-.4a1.24,1.24,0,0,0,.94.44.59.59,0,0,0,.66-.56c0-.32-.16-.5-.74-.66s-.87-.49-.87-.93.37-.83,1-.83a1.4,1.4,0,0,1,.84.29l-.09.34a1.35,1.35,0,0,0-.75-.29c-.4,0-.62.19-.62.49s.14.42.63.55c.67.18,1,.48,1,1a1,1,0,0,1-1.05.94A1.44,1.44,0,0,1,143.66,36.54Z"/><path class="cls-1" d="M58.25,28.6a14.14,14.14,0,0,0-2.18-4.71c5.22-2,8.46-6.57,8.46-13.25,0-6.52-5-9.65-10.9-9.65H48.52l-11.8.29L36,6.1l3.62,1.74-4,27.61L31.5,36.91,30.76,42H46.5l.75-5.05-3.67-1.46L45,25.86c3.46,0,5,.82,6.06,5.06l2.87,11H63.2l.74-5.05-3.61-1.46Zm-5.77-9.41a4.82,4.82,0,0,1-6.16-.6l-.46.31a.83.83,0,0,1-1.15-.21.82.82,0,0,1,.21-1.15l.46-.32a4.82,4.82,0,0,1,1.64-6l8.75-6,2.28,3.31-4.82,3.32a3.82,3.82,0,0,1,.49.63A4.82,4.82,0,0,1,52.48,19.19Z"/><rect class="cls-2" x="94.18" y="16.92" width="25.96" height="0.95" transform="translate(124.55 -89.77) rotate(90)"/></g></g></svg>