<svg xmlns="http://www.w3.org/2000/svg" viewBox="0 0 115 38.4"><defs><style>.cls-1,.cls-3{fill:#282827;}.cls-2{fill:#f05924;}.cls-3{font-size:3.98px;font-family:RailroadGothicATF, Railroad Gothic ATF;letter-spacing:0.07em;}.cls-4{letter-spacing:0.05em;}.cls-5{letter-spacing:0.07em;}</style></defs><g id="Layer_2" data-name="Layer 2"><g id="Layer_1-2" data-name="Layer 1"><rect class="cls-1" x="67.43" y="15.54" width="25.96" height="0.95" transform="translate(96.43 -64.39) rotate(90)"/><path class="cls-2" d="M0,37.78.59,34,4.75,4.42,5.22.62h9.05l-.59,3.8L10,30.35H21.16l-1,7.43Z"/><path class="cls-2" d="M74.16,13.77H65.29l.06-.47c.53-3.74.81-5.77-1.69-5.77s-2.78,2-3.31,5.77L58.7,25.1c-.6,4.26-.89,6.29,1.85,6.29,3,0,3.37-2.4,3.71-4.84l.31-2.18H61.06l1-6.86H73.63L70.78,37.78H68.22L67,35.13h-.06a12.4,12.4,0,0,1-8.62,3.27c-9.82,0-9.19-8.68-8.31-15L51.18,15c1-6.86,2.41-15,13.72-15,10.18,0,10.26,6.65,9.31,13.41Z"/><path class="cls-2" d="M40.33.62H28.07l-.47,3.8L23.44,34l-.59,3.8h9l.48-3.8L34,22.19h1.25c2.79,0,3.51,1.25,3.09,4.26l-1,7.38a7.63,7.63,0,0,0,.16,4h8.57l.07-.52c-.38-1.51-.18-2.91.13-5.15l.8-5.66c.6-4.26-1-7.43-4-8.16v-.1c3.29-1.41,5.53-2.91,6.26-8.11l0-.26C50.23,3.9,47.35.62,40.33.62Zm-.54,9.53a3.75,3.75,0,0,1,.42.6A4.43,4.43,0,0,1,33.1,16l-.44.27a.77.77,0,0,1-1-.26.76.76,0,0,1,.26-1l.43-.27a4.43,4.43,0,0,1,1.82-5.4l8.34-5.08,1.92,3.16Z"/><path class="cls-1" d="M82.68,8.89V3h1.47V7.72h1.8V8.89Z"/><path class="cls-1" d="M88,9c-1.8,0-1.85-1.31-1.85-2.36V5.3c0-1,0-2.36,1.85-2.36s1.86,1.18,1.86,2.36V6.63C89.89,7.8,89.84,9,88,9Zm-.4-2.1c0,.59,0,.91.4.91s.41-.32.41-.91V5c0-.59,0-.91-.41-.91s-.4.32-.4.91Z"/><path class="cls-1" d="M90.61,8.29V3h1.2l1.27,2.8h.05V3h1.36V8.89h-1.2L92,6.1h0V8.89H90.6Z"/><path class="cls-1" d="M99.1,7.12c0,1-.35,1.77-1.78,1.77H95.38V3h1.94c1.39,0,1.76.68,1.78,1.77ZM97.65,4.87c0-.41,0-.66-.48-.66h-.33V7.72h.33c.47,0,.48-.26.48-.67Z"/><path class="cls-1" d="M101.57,9c-1.8,0-1.85-1.31-1.85-2.36V5.3c0-1,0-2.36,1.85-2.36s1.86,1.18,1.86,2.36V6.63C103.43,7.8,103.38,9,101.57,9Zm-.4-2.1c0,.59,0,.91.4.91s.41-.32.41-.91V5c0-.59,0-.91-.41-.91s-.4.32-.4.91Z"/><path class="cls-1" d="M104.15,8.29V3h1.2l1.27,2.8h0V3H108V8.89H106.8L105.53,6.1h0V8.89h-1.35Z"/><path class="cls-1" d="M86.66,14.82a1.16,1.16,0,0,1-.83,1.27v0a1.19,1.19,0,0,1,.83,1.28v.9a2,2,0,0,0,.1.81v.08H85.37a1.2,1.2,0,0,1-.12-.62V17.39c0-.47-.14-.67-.59-.67h-.21v2.46H83V13.33h2c1.14,0,1.68.51,1.68,1.45Zm-2.21.8h.26c.39,0,.53-.17.53-.56V15c0-.39-.14-.54-.53-.54h-.26Z"/><path class="cls-1" d="M88.82,16.82V18h1.75v1.17H87.36V13.33h3.18V14.5H88.82v1.15h1.54v1.17Z"/><path class="cls-1" d="M92.65,16.82v2.36H91.19V13.33h3.13V14.5H92.65v1.15h1.49v1.17Z"/><path class="cls-1" d="M96.35,16.82V18h1.76v1.17H94.89V13.33h3.19V14.5H96.35v1.15H97.9v1.17Z"/><path class="cls-1" d="M102.39,14.82a1.16,1.16,0,0,1-.83,1.27v0a1.2,1.2,0,0,1,.83,1.28v.9a2,2,0,0,0,.1.81v.08H101.1a1.2,1.2,0,0,1-.12-.62V17.39c0-.47-.14-.67-.6-.67h-.2v2.46H98.72V13.33h2c1.14,0,1.68.51,1.68,1.45Zm-2.21.8h.26c.39,0,.53-.17.53-.56V15c0-.39-.14-.54-.53-.54h-.26Z"/><path class="cls-1" d="M104.54,16.82V18h1.76v1.17h-3.22V13.33h3.19V14.5h-1.73v1.15h1.55v1.17Z"/><path class="cls-1" d="M108.38,16.82V18h1.75v1.17h-3.21V13.33h3.18V14.5h-1.72v1.15h1.54v1.17Z"/><path class="cls-1" d="M111.79,17.05v.34c0,.54.28.82.7.82a.52.52,0,0,0,.57-.55c0-.36-.24-.58-.83-.92l-.63-.37a1.59,1.59,0,0,1-1-1.48,1.68,1.68,0,0,1,1.9-1.66A1.7,1.7,0,0,1,114.41,15v.23h-1.28v-.15c0-.57-.24-.82-.64-.82s-.55.16-.55.48.09.4.76.76l.64.36a1.87,1.87,0,0,1,1.16,1.68c0,1.08-.74,1.7-1.92,1.7s-2.12-.51-2.12-1.8v-.43Z"/><path class="cls-1" d="M86.66,25.12H85.22v-.07c0-.59,0-.91-.4-.91s-.41.32-.41.91V26.9c0,.68,0,1,.45,1s.49-.38.49-.77v-.34h-.57V25.71h1.88V28.9h-.41L86,28.48h0a1.78,1.78,0,0,1-1.32.52c-1.6,0-1.7-1.37-1.7-2.36V25.32C83,24.24,83,23,84.85,23c1.65,0,1.81,1.05,1.81,2.11Z"/><path class="cls-1" d="M91.16,24.54a1.17,1.17,0,0,1-.83,1.28h0a1.22,1.22,0,0,1,.83,1.29V28a2,2,0,0,0,.1.81v.08H89.87a1.18,1.18,0,0,1-.12-.62V27.12c0-.48-.14-.67-.6-.67H89V28.9H87.49V23.05h2c1.14,0,1.68.52,1.68,1.45Zm-2.21.8h.26c.39,0,.53-.17.53-.55v-.11c0-.39-.14-.53-.53-.53H89Z"/><path class="cls-1" d="M93.6,29c-1.81,0-1.85-1.31-1.85-2.36V25.32c0-1.06,0-2.37,1.85-2.37s1.85,1.19,1.85,2.37v1.32C95.45,27.81,95.41,29,93.6,29Zm-.41-2.1c0,.59,0,.91.41.91s.41-.32.41-.91V25.05c0-.59,0-.91-.41-.91s-.41.32-.41.91Z"/><path class="cls-1" d="M99.82,23.05v4.31c0,1.05-.65,1.64-1.82,1.64s-1.84-.59-1.84-1.64V23.05H97.6v4.26c0,.32.09.5.4.5s.41-.18.41-.5V23.05Z"/><path class="cls-1" d="M104.31,25.12c0,.93-.52,1.5-1.66,1.5h-.55V28.9h-1.47V23.05h2c1.14,0,1.66.52,1.66,1.45Zm-2.21.39h.26c.39,0,.53-.18.53-.56v-.27c0-.39-.14-.53-.53-.53h-.26Z"/><text class="cls-3" transform="translate(79.66 36.21) scale(1.24 1)">Hocke<tspan class="cls-4" x="10.22" y="0">y</tspan><tspan class="cls-5" x="12.14" y="0" xml:space="preserve"> Referees</tspan></text></g></g></svg>