<svg xmlns="http://www.w3.org/2000/svg" viewBox="0 0 450.62 450.62"><defs><style>.cls-1{fill:#ec2c28;}</style></defs><g id="Layer_2" data-name="Layer 2"><g id="Layer_1-2" data-name="Layer 1"><path class="cls-1" d="M225.31,0C100.87,0,0,100.87,0,225.31S100.87,450.62,225.31,450.62,450.62,349.74,450.62,225.31,349.74,0,225.31,0ZM357.83,146.47l-104,178.19a44.28,44.28,0,0,1-65.5,12.58l-86.88-67.8A34.87,34.87,0,0,1,88,242h0c0-28.17,35.09-46.51,58.22-30.43l62.89,47.9,87.17-149.06a34.86,34.86,0,0,1,50.42-10.74l1.29.92A34.89,34.89,0,0,1,357.83,146.47Z"/></g></g></svg>