<?xml version="1.0" encoding="utf-8"?>
<!-- Generator: Adobe Illustrator 25.2.0, SVG Export Plug-In . SVG Version: 6.00 Build 0)  -->
<svg version="1.1" id="Layer_1" xmlns="http://www.w3.org/2000/svg" xmlns:xlink="http://www.w3.org/1999/xlink" x="0px" y="0px"
	 viewBox="0 0 72 72" style="enable-background:new 0 0 72 72;" xml:space="preserve">
<style type="text/css">
	.st0{fill:#FFFFFF;}
	.st1{fill:#FFFFFF;stroke:#FFFFFF;stroke-linecap:round;stroke-linejoin:round;stroke-miterlimit:10;}
</style>
<circle class="st0" cx="29.9" cy="41.5" r="6.7"/>
<path class="st0" d="M34.6,18.8l-0.3,0.3c-0.1,0.1-0.3,0.2-0.5,0l-3.2-2.6c-0.1-0.1-0.2-0.3,0-0.5l0.3-0.3c0.1-0.1,0.3-0.2,0.5,0
	l3.2,2.6C34.7,18.5,34.8,18.7,34.6,18.8z"/>
<path class="st0" d="M36.9,17.6l-0.5,0.1c-0.2,0.1-0.4,0-0.4-0.2l-1.2-4c-0.1-0.2,0-0.4,0.2-0.4l0.5-0.1c0.2-0.1,0.4,0,0.4,0.2
	l1.2,4C37.2,17.4,37.1,17.6,36.9,17.6z"/>
<path class="st0" d="M39.8,17.8l-0.4-0.1c-0.2,0-0.3-0.2-0.3-0.4l0.7-4.1c0-0.2,0.2-0.3,0.4-0.3l0.4,0.1c0.2,0,0.3,0.2,0.3,0.4
	l-0.7,4.1C40.2,17.7,40,17.8,39.8,17.8z"/>
<path class="st1" d="M44.6,34.1L63.7,28l-4.2-13.1l-19.4,6.1l1,3.1c0.2,0.5-0.1,1.1-0.6,1.2l-2.9,1c-0.5,0.2-1.1-0.1-1.2-0.6
	l-1.1-3.2l-10.5,3.3C17.1,28.3,12.4,36,13.5,43.8l-1.8,0.6c-1.5,0.5-2.3,2.1-1.8,3.6c0.5,1.5,2.1,2.3,3.6,1.8l1.8-0.6
	c3.6,7,11.8,10.6,19.6,8.1c8.7-2.7,13.5-12,10.8-20.7C45.5,36.6,45.1,35.1,44.6,34.1z M12.6,49.2c-1.2,0-2.2-1-2.2-2.2
	c0-1.2,1-2.2,2.2-2.2s2.2,1,2.2,2.2C14.7,48.3,13.8,49.2,12.6,49.2z M29.9,51.5c-5.5,0-10-4.5-10-10c0-5.5,4.5-10,10-10
	c5.5,0,10,4.5,10,10C40,47,35.5,51.5,29.9,51.5z"/>
</svg>
