<?xml version="1.0" encoding="utf-8"?>
<!-- Generator: Adobe Illustrator 25.2.0, SVG Export Plug-In . SVG Version: 6.00 Build 0)  -->
<svg version="1.1" id="Layer_1" xmlns="http://www.w3.org/2000/svg" xmlns:xlink="http://www.w3.org/1999/xlink" x="0px" y="0px"
	 viewBox="0 0 76.7 75.1" style="enable-background:new 0 0 76.7 75.1;" xml:space="preserve">
<style type="text/css">
	.st0{fill:#EB2D2A;}
	.st1{fill:#FFFFFF;}
</style>
<circle class="st0" cx="38.4" cy="36.9" r="36"/>
<path class="st1" d="M47.6,49.5l-1.8-0.6c0.3-2.2,0.2-4.5-0.4-6.6l1.7-0.8c0.3-0.2,0.5-0.6,0.3-0.9l-1.9-3.9
	c-0.2-0.3-0.6-0.5-0.9-0.3l-1.7,0.8c-1.3-1.7-3-3.2-5-4.3l0.6-1.8c0.1-0.3-0.1-0.7-0.4-0.8L34,29c-0.3-0.1-0.7,0.1-0.8,0.4l-0.6,1.8
	c-2.2-0.3-4.5-0.2-6.6,0.4L25.2,30c-0.2-0.3-0.6-0.5-0.9-0.3l-3.9,1.9c-0.3,0.2-0.5,0.6-0.3,0.9l0.8,1.7c-1.7,1.3-3.2,3-4.3,5
	l-1.8-0.6c-0.3-0.1-0.7,0.1-0.8,0.4l-1.4,4.1c-0.1,0.3,0.1,0.7,0.4,0.8l1.8,0.6c-0.3,2.2-0.2,4.5,0.4,6.6l-1.7,0.8
	c-0.3,0.2-0.5,0.6-0.3,0.9l1.9,3.9c0.2,0.3,0.6,0.5,0.9,0.3l1.7-0.8c1.3,1.7,3,3.2,5,4.3l-0.6,1.8c-0.1,0.3,0.1,0.7,0.4,0.8l4.1,1.4
	c0.3,0.1,0.7-0.1,0.8-0.4l0.6-1.8c2.2,0.3,4.5,0.2,6.6-0.4l0.8,1.7c0.2,0.3,0.6,0.5,0.9,0.3l3.9-1.9c0.3-0.2,0.5-0.6,0.3-0.9
	l-0.8-1.7c1.7-1.3,3.2-3,4.3-5l1.8,0.6c0.3,0.1,0.7-0.1,0.8-0.4l1.4-4.1C48.2,50,48,49.6,47.6,49.5z M27,56.8
	c-5.6-1.9-8.6-7.9-6.7-13.5c1.9-5.6,7.9-8.6,13.5-6.7s8.6,7.9,6.7,13.5C38.6,55.7,32.5,58.7,27,56.8z"/>
<path class="st1" d="M60.8,29.3l-1.1-0.8c0.7-1.5,1-3,1-4.6l1.3-0.2c0.3,0,0.4-0.3,0.4-0.5l-0.6-3.1c0-0.3-0.3-0.4-0.5-0.4L60,20
	c-0.5-1.5-1.4-2.8-2.5-3.9l0.8-1.1c0.1-0.2,0.1-0.5-0.1-0.7l-2.6-1.8c-0.2-0.1-0.5-0.1-0.7,0.1l-0.8,1.1c-1.5-0.7-3-1-4.6-1
	l-0.2-1.3c0-0.3-0.3-0.4-0.5-0.4l-3.1,0.6c-0.3,0-0.4,0.3-0.4,0.5l0.2,1.3c-1.5,0.5-2.8,1.4-3.9,2.5l-1.1-0.8
	c-0.2-0.1-0.5-0.1-0.7,0.1l-1.8,2.6c-0.1,0.2-0.1,0.5,0.1,0.7l1.1,0.8c-0.7,1.5-1,3-1,4.6L37,24.2c-0.3,0-0.4,0.3-0.4,0.5l0.6,3.1
	c0,0.3,0.3,0.4,0.5,0.4l1.3-0.2c0.5,1.5,1.4,2.8,2.5,3.9l-0.8,1.1c-0.1,0.2-0.1,0.5,0.1,0.7l2.6,1.8c0.2,0.1,0.5,0.1,0.7-0.1
	l0.8-1.1c1.5,0.7,3,1,4.6,1l0.2,1.3c0,0.3,0.3,0.4,0.5,0.4l3.1-0.6c0.3,0,0.4-0.3,0.4-0.5l-0.2-1.3c1.5-0.5,2.8-1.4,3.9-2.5l1.1,0.8
	c0.2,0.1,0.5,0.1,0.7-0.1l1.8-2.6C61.1,29.7,61,29.4,60.8,29.3z M45.2,30.2c-3.5-2.4-4.3-7.1-1.9-10.6c2.4-3.5,7.1-4.3,10.6-1.9
	s4.3,7.1,1.9,10.6C53.4,31.7,48.6,32.6,45.2,30.2z"/>
</svg>
