<?xml version="1.0" encoding="utf-8"?>
<!-- Generator: Adobe Illustrator 25.2.0, SVG Export Plug-In . SVG Version: 6.00 Build 0)  -->
<svg version="1.1" id="Layer_1" xmlns="http://www.w3.org/2000/svg" xmlns:xlink="http://www.w3.org/1999/xlink" x="0px" y="0px"
	 viewBox="0 0 77 78" style="enable-background:new 0 0 77 78;" xml:space="preserve">
<style type="text/css">
	.st0{fill:#EB2D2A;}
	.st1{fill:#FFFFFF;}
	.st2{fill:#FFFFFF;stroke:#FFFFFF;stroke-linecap:round;stroke-linejoin:round;stroke-miterlimit:10;}
</style>
<circle class="st0" cx="37.7" cy="39.9" r="36"/>
<circle class="st1" cx="31" cy="46.1" r="6.7"/>
<path class="st1" d="M35.7,23.5l-0.3,0.3c-0.1,0.1-0.3,0.2-0.5,0l-3.2-2.6c-0.1-0.1-0.2-0.3,0-0.5l0.3-0.3c0.1-0.1,0.3-0.2,0.5,0
	l3.2,2.6C35.8,23.1,35.8,23.3,35.7,23.5z"/>
<path class="st1" d="M38,22.3l-0.5,0.1c-0.2,0.1-0.4,0-0.4-0.2l-1.2-4c-0.1-0.2,0-0.4,0.2-0.4l0.5-0.1c0.2-0.1,0.4,0,0.4,0.2l1.2,4
	C38.3,22,38.2,22.2,38,22.3z"/>
<path class="st1" d="M40.9,22.4l-0.4-0.1c-0.2,0-0.3-0.2-0.3-0.4l0.7-4.1c0-0.2,0.2-0.3,0.4-0.3l0.4,0.1c0.2,0,0.3,0.2,0.3,0.4
	l-0.7,4.1C41.2,22.3,41.1,22.5,40.9,22.4z"/>
<path class="st2" d="M45.6,38.7l19.1-6.1l-4.2-13.1l-19.4,6.1l1,3.1c0.2,0.5-0.1,1.1-0.6,1.2l-2.9,1c-0.5,0.2-1.1-0.1-1.2-0.6
	l-1.1-3.2l-10.5,3.3C18.1,33,13.5,40.7,14.5,48.5L12.7,49c-1.5,0.5-2.3,2.1-1.8,3.6c0.5,1.5,2.1,2.3,3.6,1.8l1.8-0.6
	c3.6,7,11.8,10.6,19.6,8.1c8.7-2.7,13.5-12,10.8-20.7C46.6,41.3,46.2,39.8,45.6,38.7z M13.6,53.9c-1.2,0-2.2-1-2.2-2.2
	c0-1.2,1-2.2,2.2-2.2s2.2,1,2.2,2.2C15.8,52.9,14.8,53.9,13.6,53.9z M31,56.2c-5.5,0-10-4.5-10-10c0-5.5,4.5-10,10-10
	c5.5,0,10,4.5,10,10C41,51.7,36.5,56.2,31,56.2z"/>
</svg>
