<?xml version="1.0" encoding="utf-8"?>
<!-- Generator: Adobe Illustrator 25.2.0, SVG Export Plug-In . SVG Version: 6.00 Build 0)  -->
<svg version="1.1" id="Layer_1" xmlns="http://www.w3.org/2000/svg" xmlns:xlink="http://www.w3.org/1999/xlink" x="0px" y="0px"
	 viewBox="0 0 72 72" style="enable-background:new 0 0 72 72;" xml:space="preserve">
<style type="text/css">
	.st0{fill:#FFFFFF;}
</style>
<path class="st0" d="M47.4,46.4l-1.8-0.6c0.3-2.2,0.2-4.5-0.4-6.6l1.7-0.8c0.3-0.2,0.5-0.6,0.3-0.9l-1.9-3.9
	c-0.2-0.3-0.6-0.5-0.9-0.3l-1.7,0.8c-1.3-1.7-3-3.2-5-4.3l0.6-1.8c0.1-0.3-0.1-0.7-0.4-0.8l-4.1-1.4c-0.3-0.1-0.7,0.1-0.8,0.4
	l-0.6,1.8c-2.2-0.3-4.5-0.2-6.6,0.4L25,26.9c-0.2-0.3-0.6-0.5-0.9-0.3l-3.9,1.9c-0.3,0.2-0.5,0.6-0.3,0.9l0.8,1.7
	c-1.7,1.3-3.2,3-4.3,5l-1.8-0.6c-0.3-0.1-0.7,0.1-0.8,0.4L12.4,40c-0.1,0.3,0.1,0.7,0.4,0.8l1.8,0.6c-0.3,2.2-0.2,4.5,0.4,6.6
	l-1.7,0.8c-0.3,0.2-0.5,0.6-0.3,0.9l1.9,3.9c0.2,0.3,0.6,0.5,0.9,0.3l1.7-0.8c1.3,1.7,3,3.2,5,4.3l-0.6,1.8
	c-0.1,0.3,0.1,0.7,0.4,0.8l4.1,1.4c0.3,0.1,0.7-0.1,0.8-0.4l0.6-1.8c2.2,0.3,4.5,0.2,6.6-0.4l0.8,1.7c0.2,0.3,0.6,0.5,0.9,0.3
	l3.9-1.9c0.3-0.2,0.5-0.6,0.3-0.9l-0.8-1.7c1.7-1.3,3.2-3,4.3-5l1.8,0.6c0.3,0.1,0.7-0.1,0.8-0.4l1.4-4.1
	C47.9,46.9,47.8,46.6,47.4,46.4z M26.7,53.7c-5.6-1.9-8.6-7.9-6.7-13.5c1.9-5.6,7.9-8.6,13.5-6.7c5.6,1.9,8.6,7.9,6.7,13.5
	C38.3,52.6,32.3,55.6,26.7,53.7z"/>
<path class="st0" d="M60.6,26.2l-1.1-0.8c0.7-1.5,1-3,1-4.6l1.3-0.2c0.3,0,0.4-0.3,0.4-0.5L61.6,17c0-0.3-0.3-0.4-0.5-0.4l-1.3,0.2
	c-0.5-1.5-1.4-2.8-2.5-3.9l0.8-1.1c0.1-0.2,0.1-0.5-0.1-0.7l-2.6-1.8c-0.2-0.1-0.5-0.1-0.7,0.1l-0.8,1.1c-1.5-0.7-3-1-4.6-1L49,8.4
	c0-0.3-0.3-0.4-0.5-0.4l-3.1,0.6c-0.3,0-0.4,0.3-0.4,0.5l0.2,1.3c-1.5,0.5-2.8,1.4-3.9,2.5l-1.1-0.8c-0.2-0.1-0.5-0.1-0.7,0.1
	l-1.8,2.6c-0.1,0.2-0.1,0.5,0.1,0.7l1.1,0.8c-0.7,1.5-1,3-1,4.6l-1.3,0.2c-0.3,0-0.4,0.3-0.4,0.5l0.6,3.1c0,0.3,0.3,0.4,0.5,0.4
	l1.3-0.2c0.5,1.5,1.4,2.8,2.5,3.9l-0.8,1.1c-0.1,0.2-0.1,0.5,0.1,0.7l2.6,1.8c0.2,0.1,0.5,0.1,0.7-0.1l0.8-1.1c1.5,0.7,3,1,4.6,1
	l0.2,1.3c0,0.3,0.3,0.4,0.5,0.4l3.1-0.6c0.3,0,0.4-0.3,0.4-0.5l-0.2-1.3c1.5-0.5,2.8-1.4,3.9-2.5l1.1,0.8c0.2,0.1,0.5,0.1,0.7-0.1
	l1.8-2.6C60.8,26.6,60.8,26.3,60.6,26.2z M44.9,27.1c-3.5-2.4-4.3-7.1-1.9-10.6c2.4-3.5,7.1-4.3,10.6-1.9c3.5,2.4,4.3,7.1,1.9,10.6
	C53.1,28.6,48.4,29.5,44.9,27.1z"/>
</svg>
