<svg width="24" height="24" xmlns="http://www.w3.org/2000/svg">

 <g>
  <title>background</title>
  <rect fill="none" id="canvas_background" height="402" width="582" y="-1" x="-1"/>
 </g>
 <g>
  <title>Layer 1</title>
  <path id="svg_1" fill="none" d="m0,0l24,0l0,24l-24,0l0,-24z"/>
  <path fill="#ed2927" id="svg_2" d="m20,3l-1,0l0,-2l-2,0l0,2l-10,0l0,-2l-2,0l0,2l-1,0c-1.1,0 -2,0.9 -2,2l0,16c0,1.1 0.9,2 2,2l16,0c1.1,0 2,-0.9 2,-2l0,-16c0,-1.1 -0.9,-2 -2,-2zm0,18l-16,0l0,-13l16,0l0,13z"/>
 </g>
</svg>