<svg width="24" height="24" xmlns="http://www.w3.org/2000/svg">

 <g>
  <title>background</title>
  <rect fill="none" id="canvas_background" height="402" width="582" y="-1" x="-1"/>
 </g>
 <g>
  <title>Layer 1</title>
  <path id="svg_1" fill="none" d="m0,0l24,0l0,24l-24,0l0,-24z"/>
  <path fill="#ed2927" id="svg_2" d="m12,2c-5.52,0 -10,4.48 -10,10s4.48,10 10,10s10,-4.48 10,-10s-4.48,-10 -10,-10zm0,3c1.66,0 3,1.34 3,3s-1.34,3 -3,3s-3,-1.34 -3,-3s1.34,-3 3,-3zm0,14.2c-2.5,0 -4.71,-1.28 -6,-3.22c0.03,-1.99 4,-3.08 6,-3.08c1.99,0 5.97,1.09 6,3.08c-1.29,1.94 -3.5,3.22 -6,3.22z"/>
 </g>
</svg>