<svg xmlns="http://www.w3.org/2000/svg" viewBox="0 0 24 24"><defs><style>.cls-1{fill:none;}.cls-2{fill:#ed2927;}</style></defs><g id="Layer_2" data-name="Layer 2"><g id="Layer_1-2" data-name="Layer 1"><path class="cls-1" d="M0,0H24V24H0Z"/><path class="cls-2" d="M12,2a10,10,0,0,0,0,20h5V20H12a8.1,8.1,0,0,1-8-8,8.1,8.1,0,0,1,8-8,8.1,8.1,0,0,1,8,8v1.43A1.62,1.62,0,0,1,18.5,15,1.62,1.62,0,0,1,17,13.43V12a5,5,0,1,0-1.46,3.53,3.7,3.7,0,0,0,3,1.47A3.51,3.51,0,0,0,22,13.43V12A10,10,0,0,0,12,2Zm0,13a3,3,0,1,1,3-3A3,3,0,0,1,12,15Z"/></g></g></svg>