<svg xmlns="http://www.w3.org/2000/svg" viewBox="0 0 89.47 28.86"><defs><style>.cls-1{fill:#ed2927;}.cls-2{fill:#fff;}</style></defs><g id="Layer_2" data-name="Layer 2"><g id="Layer_1-2" data-name="Layer 1"><path class="cls-1" d="M0,28.39l.45-2.85L3.57,3.32,3.92.47h6.81l-.45,2.85L7.54,22.81h8.37l-.79,5.58Z"/><path class="cls-1" d="M55.73,10.35H49.07l0-.35c.39-2.81.61-4.34-1.27-4.34S45.76,7.19,45.36,10l-1.25,8.86c-.45,3.21-.66,4.73,1.4,4.73,2.28,0,2.53-1.8,2.79-3.63l.23-1.64H45.89l.73-5.16h8.72L53.2,28.39H51.28l-.93-2H50.3a9.31,9.31,0,0,1-6.47,2.46c-7.39,0-6.92-6.52-6.25-11.25l.89-6.32C39.19,6.13,40.28,0,48.78,0c7.65,0,7.71,5,7,10.08Z"/><path class="cls-1" d="M30.31.47H21.1l-.36,2.85L17.62,25.54l-.45,2.85H24l.36-2.85,1.24-8.86h.94c2.11,0,2.64.93,2.33,3.2l-.78,5.54a5.71,5.71,0,0,0,.12,3h6.44l.05-.39a9.81,9.81,0,0,1,.1-3.86l.6-4.26c.45-3.2-.74-5.59-3-6.13v-.08c2.48-1.06,4.16-2.19,4.71-6.09l0-.2C37.75,2.93,35.59.47,30.31.47Zm-.4,7.16a3,3,0,0,1,.31.45A3.33,3.33,0,0,1,24.87,12l-.32.2a.57.57,0,1,1-.6-1l.33-.2A3.33,3.33,0,0,1,25.64,7l6.27-3.82,1.45,2.37Z"/><path class="cls-2" d="M60.71,7.46V2.12h1.34V6.39h1.64V7.46Z"/><path class="cls-2" d="M65.6,7.55c-1.64,0-1.69-1.2-1.69-2.15V4.19C63.91,3.22,64,2,65.6,2s1.69,1.08,1.69,2.16V5.4C67.29,6.46,67.25,7.55,65.6,7.55Zm-.37-1.92c0,.54,0,.83.37.83s.37-.29.37-.83V3.94c0-.54,0-.83-.37-.83s-.37.29-.37.83Z"/><path class="cls-2" d="M68,6.91V2.12H69L70.2,4.66h0V2.12h1.25V7.46h-1.1L69.21,4.92h0V7.46H67.94Z"/><path class="cls-2" d="M75.7,5.84c0,.93-.32,1.62-1.63,1.62H72.3V2.12h1.77c1.27,0,1.61.61,1.63,1.61Zm-1.33-2c0-.37,0-.61-.43-.61h-.31V6.39h.31c.43,0,.43-.23.43-.61Z"/><path class="cls-2" d="M78,7.55c-1.65,0-1.7-1.2-1.7-2.15V4.19c0-1,0-2.16,1.7-2.16s1.69,1.08,1.69,2.16V5.4C79.65,6.46,79.61,7.55,78,7.55Zm-.37-1.92c0,.54,0,.83.37.83s.37-.29.37-.83V3.94c0-.54,0-.83-.37-.83s-.37.29-.37.83Z"/><path class="cls-2" d="M80.31,6.91V2.12h1.09l1.16,2.54h0V2.12h1.24V7.46h-1.1L81.57,4.92h0V7.46H80.3Z"/><path class="cls-2" d="M64.06,10.54a1.06,1.06,0,0,1-.75,1.16v0a1.1,1.1,0,0,1,.75,1.17v.81a1.81,1.81,0,0,0,.09.74v.08H62.88a1.17,1.17,0,0,1-.1-.57V12.89c0-.43-.14-.61-.55-.61h-.18v2.24H60.71V9.18h1.82c1,0,1.53.47,1.53,1.32Zm-2,.73h.23c.36,0,.49-.16.49-.51v-.1c0-.35-.13-.48-.49-.48h-.23Z"/><path class="cls-2" d="M66,12.37v1.08h1.6v1.07H64.69V9.18H67.6v1.06H66V11.3h1.41v1.07Z"/><path class="cls-2" d="M69.52,12.37v2.15H68.19V9.18h2.86v1.06H69.52V11.3h1.37v1.07Z"/><path class="cls-2" d="M72.9,12.37v1.08h1.61v1.07H71.57V9.18h2.91v1.06H72.9V11.3h1.41v1.07Z"/><path class="cls-2" d="M78.42,10.54a1.06,1.06,0,0,1-.76,1.16v0a1.1,1.1,0,0,1,.76,1.17v.81a2,2,0,0,0,.08.74v.08H77.23a1.29,1.29,0,0,1-.1-.57V12.89c0-.43-.13-.61-.55-.61H76.4v2.24H75.07V9.18h1.81c1,0,1.54.47,1.54,1.32Zm-2,.73h.24c.35,0,.48-.16.48-.51v-.1c0-.35-.13-.48-.48-.48H76.4Z"/><path class="cls-2" d="M80.38,12.37v1.08H82v1.07H79.05V9.18H82v1.06H80.38V11.3h1.41v1.07Z"/><path class="cls-2" d="M83.87,12.37v1.08h1.61v1.07H82.54V9.18h2.91v1.06H83.87V11.3h1.41v1.07Z"/><path class="cls-2" d="M87,12.57v.32c0,.49.26.74.64.74a.46.46,0,0,0,.52-.49c0-.33-.22-.54-.75-.85L86.81,12a1.45,1.45,0,0,1-.89-1.35,1.74,1.74,0,0,1,3.46.14V11H88.22v-.14c0-.51-.22-.74-.59-.74s-.5.14-.5.44.08.35.69.69l.59.33a1.73,1.73,0,0,1,1.06,1.53c0,1-.68,1.55-1.76,1.55s-1.94-.47-1.94-1.65v-.39Z"/><path class="cls-2" d="M64.09,17.8H62.78v-.07c0-.54,0-.83-.37-.83s-.37.29-.37.83v1.7c0,.61,0,.9.4.9s.45-.34.45-.69v-.32h-.52v-1h1.72v2.91h-.38l-.24-.38h0a1.6,1.6,0,0,1-1.2.47c-1.46,0-1.55-1.25-1.55-2.15V18c0-1,0-2.16,1.72-2.16,1.51,0,1.66,1,1.66,1.93Z"/><path class="cls-2" d="M68.19,17.27a1.08,1.08,0,0,1-.75,1.17h0a1.1,1.1,0,0,1,.75,1.17v.82a1.83,1.83,0,0,0,.09.74v.07H67a1.12,1.12,0,0,1-.1-.57V19.62c0-.43-.14-.61-.55-.61h-.18v2.24H64.84V15.91h1.82c1,0,1.53.47,1.53,1.32Zm-2,.73h.23c.36,0,.49-.16.49-.51V17.4c0-.35-.13-.49-.49-.49h-.23Z"/><path class="cls-2" d="M70.42,21.34c-1.65,0-1.69-1.19-1.69-2.15V18c0-1,0-2.16,1.69-2.16S72.11,16.9,72.11,18v1.21C72.11,20.26,72.07,21.34,70.42,21.34Zm-.37-1.91c0,.54,0,.83.37.83s.37-.29.37-.83v-1.7c0-.54,0-.83-.37-.83s-.37.29-.37.83Z"/><path class="cls-2" d="M76.09,15.91v3.93c0,1-.59,1.5-1.65,1.5s-1.69-.54-1.69-1.5V15.91h1.34v3.88c0,.3.09.47.37.47s.37-.17.37-.47V15.91Z"/><path class="cls-2" d="M80.19,17.8c0,.85-.47,1.37-1.51,1.37h-.5v2.08H76.85V15.91h1.83c1,0,1.51.47,1.51,1.32Zm-2,.35h.23c.36,0,.49-.16.49-.51V17.4c0-.35-.13-.49-.49-.49h-.23Z"/><path class="cls-2" d="M61.68,27v.73h.91v.71H60.93V24.81h1.65v.72h-.9v.71h.8V27Z"/><path class="cls-2" d="M63.83,27.09v.21c0,.33.14.5.36.5a.29.29,0,0,0,.3-.33c0-.22-.13-.36-.43-.57l-.34-.22a1,1,0,0,1-.5-.91.94.94,0,0,1,1-1c.52,0,1,.31,1,1.11V26h-.66v-.1c0-.34-.12-.5-.33-.5a.26.26,0,0,0-.28.3c0,.12,0,.24.39.46l.33.22a1.18,1.18,0,0,1,.6,1,.93.93,0,0,1-1,1,1,1,0,0,1-1.11-1.1v-.26Z"/><path class="cls-2" d="M67,25.53v2.86h-.76V25.53h-.65v-.72h2v.72Z"/><path class="cls-2" d="M67.83,27.38h.71v1h-.71Z"/><path class="cls-2" d="M71,27.7v0h1.19v.66H70.31V27.7a3.42,3.42,0,0,0,1.12-2c0-.23-.07-.33-.23-.33s-.28.12-.28.54v.16h-.59v-.17c0-.91.48-1.19.93-1.19a.9.9,0,0,1,.91,1C72.17,26.61,71.54,27.14,71,27.7Z"/><path class="cls-2" d="M73.78,28.45c-1,0-1-.8-1-1.44V26.2c0-.65,0-1.45,1-1.45s1,.73,1,1.45V27C74.74,27.73,74.74,28.45,73.78,28.45Zm-.21-1.2c0,.36,0,.56.21.56s.21-.2.21-.56V26c0-.37,0-.56-.21-.56s-.21.19-.21.56Z"/><path class="cls-2" d="M76.38,28.45c-1,0-1-.8-1-1.44V26.2c0-.65,0-1.45,1-1.45s1,.73,1,1.45V27C77.34,27.73,77.34,28.45,76.38,28.45Zm-.21-1.2c0,.36,0,.56.21.56s.21-.2.21-.56V26c0-.37,0-.56-.21-.56s-.21.19-.21.56Z"/><path class="cls-2" d="M78.34,28.39c0-.19,0-.37,0-.54A3.93,3.93,0,0,1,79,25.48h-1.1v-.67h1.84v.57a3.1,3.1,0,0,0-.63,2.2c0,.23,0,.5,0,.81Z"/></g></g></svg>