<?xml version="1.0" encoding="utf-8"?>
<!-- Generator: Adobe Illustrator 25.2.0, SVG Export Plug-In . SVG Version: 6.00 Build 0)  -->
<svg version="1.1" id="Layer_1" xmlns="http://www.w3.org/2000/svg" xmlns:xlink="http://www.w3.org/1999/xlink" x="0px" y="0px"
	 viewBox="0 0 358.1 357.2" style="enable-background:new 0 0 358.1 357.2;" xml:space="preserve">
<style type="text/css">
	.st0{fill:#282827;}
	.st1{fill:none;stroke:#FFFFFF;stroke-width:9;stroke-miterlimit:10;}
	.st2{fill:none;stroke:#FFFFFF;stroke-width:0.25;stroke-miterlimit:10;}
	.st3{fill:#ED2927;}
	.st4{fill:#FFFFFF;}
	.st5{fill:none;stroke:#FFFFFF;stroke-width:0.7932;stroke-miterlimit:10;}
</style>
<g>
	<circle class="st0" cx="179" cy="178.6" r="177"/>
</g>
<circle class="st1" cx="179" cy="178.6" r="147.4"/>
<path class="st2" d="M59.1,178.6"/>
<path class="st2" d="M299.7,178.6"/>
<path class="st3" d="M85.4,224.5l1.6-10.8l10.9-84.2l1.2-10.8h23.7l-1.6,10.8l-9.5,73.9h29.2l-2.7,21.2H85.4z"/>
<path class="st3" d="M279.7,156.1h-23.2l0.2-1.3c1.4-10.7,2.1-16.4-4.4-16.4c-6.5,0-7.3,5.8-8.7,16.4l-4.3,33.6
	c-1.6,12.1-2.3,17.9,4.9,17.9c8,0,8.8-6.8,9.7-13.8l0.8-6.2h-9.2l2.5-19.5h30.4l-7.5,57.7h-6.7l-3.2-7.6h-0.2
	c-6.4,5.9-13.1,9.3-22.6,9.3c-25.7,0-24.1-24.7-21.8-42.6l3.1-24c2.5-19.5,6.3-42.8,35.9-42.8c26.7,0,26.9,18.9,24.4,38.2
	L279.7,156.1z"/>
<path class="st3" d="M191.1,118.7H159l-1.2,10.8l-10.9,84.2l-1.6,10.8H169l1.2-10.8l4.3-33.6h3.3c7.3,0,9.2,3.6,8.1,12.1l-2.7,21
	c-0.6,4.4-0.7,9,0.4,11.2h22.5l0.2-1.5c-1-4.3-0.5-8.3,0.3-14.7l2.1-16.1c1.6-12.1-2.6-21.2-10.4-23.2l0-0.3
	c8.6-4,14.5-8.3,16.4-23.1l0.1-0.7C217,128,209.5,118.7,191.1,118.7z M189.7,145.8c0.6,0.7,1.1,1.7,1.1,1.7c3.3,6,1.6,13.7-3.9,17.3
	c-4.9,3.2-11.1,2.1-14.7-2.5l-1.1,0.8c-0.9,0.6-2.2,0.3-2.7-0.7c-0.6-1-0.3-2.4,0.7-3l1.1-0.8c-2-5.6-0.1-12.1,4.8-15.4l21.9-14.5
	l5,9L189.7,145.8z"/>
<g>
	<path class="st4" d="M123.7,71.1l1.5,2.7l3.5-1.9l1.4,2.6l-6.4,3.5l-0.7-1.4l-5.7-10.5l-0.8-1.3l6.3-3.4l1.4,2.6l-3.4,1.9l1.4,2.6
		l3.1-1.7l1.4,2.6L123.7,71.1z"/>
	<path class="st4" d="M137.1,65.5l0.3,0.8c0.5,1.3,1.3,1.7,2.2,1.4c0.8-0.3,1-1,0.7-1.8c-0.3-0.9-1-1.2-2.6-1.6l-1.7-0.4
		c-1.9-0.4-2.9-1.3-3.4-2.8c-1-2.6,0.3-4.7,2.5-5.5c2.1-0.8,4.5-0.3,5.6,2.8l0.2,0.6l-2.7,1l-0.1-0.4c-0.5-1.4-1.3-1.8-2.1-1.4
		c-0.7,0.3-1,0.8-0.7,1.6c0.2,0.5,0.5,0.9,2.3,1.2l1.7,0.3c2.9,0.6,3.7,2.4,4,3.1c1,2.6,0,4.7-2.5,5.6c-2.3,0.9-5,0.5-6.1-2.6
		l-0.4-1L137.1,65.5z"/>
	<path class="st4" d="M153.9,53.5l2.4,10.2l0.4,1.5l-3.2,0.8l-0.3-1.5l-2.4-10.2l-2.8,0.6l-0.7-2.9l8.7-2l0.7,2.9L153.9,53.5z"/>
	<path class="st4" d="M164,59.6l3-0.4l0.5,4.2l-3,0.4L164,59.6z"/>
	<path class="st4" d="M187.7,60l0,0.1l5.2,0.4l-0.2,2.8l-8.1-0.6l0.2-2.9c3-2.9,5.3-5.4,5.4-7.9c0.1-1-0.2-1.4-0.9-1.5
		c-0.8-0.1-1.3,0.5-1.4,2.2l0,0.7l-2.6-0.2l0.1-0.7c0.3-3.8,2.4-4.8,4.4-4.7c2.2,0.2,3.8,1.7,3.6,4.5
		C193.2,55.8,190.3,57.8,187.7,60z"/>
	<path class="st4" d="M203.8,65.4c-4.1-0.9-3.4-4.2-2.9-6.8l0.7-3.3c0.6-2.7,1.3-6,5.4-5.1s3.5,3.9,2.9,6.8l-0.7,3.3
		C208.6,63.3,208,66.3,203.8,65.4z M204,60.3c-0.3,1.5-0.5,2.3,0.4,2.5s1.1-0.6,1.4-2.1l1.1-5.3c0.3-1.5,0.5-2.3-0.4-2.5
		c-0.9-0.2-1.1,0.6-1.4,2.1L204,60.3z"/>
	<path class="st4" d="M218.9,69.7c-3.9-1.4-2.8-4.6-1.9-7.1l1.2-3.2c0.9-2.6,2.1-5.7,6-4.3s2.9,4.3,1.9,7.2l-1.2,3.2
		C223.8,68.2,222.8,71.1,218.9,69.7z M219.7,64.6c-0.5,1.4-0.8,2.2,0.1,2.5s1.1-0.5,1.7-1.9l1.9-5.1c0.5-1.4,0.8-2.2-0.1-2.5
		s-1.1,0.5-1.7,1.9L219.7,64.6z"/>
	<path class="st4" d="M230.9,74.5c0.3-0.7,0.6-1.4,1-2.1c2.1-4.1,4.4-5.9,7.3-7.5l-4.3-2.2l1.3-2.5l7.1,3.7l-1.1,2.1
		c-2.9,1.4-4.4,2.5-6.7,6.9c-0.5,0.9-0.9,1.9-1.5,3.1L230.9,74.5z"/>
</g>
<g>
	<path class="st5" d="M62.5,214.8c-3.5-11.4-5.4-23.5-5.4-36.1c0-40.1,19.2-75.8,48.8-98.3"/>
</g>
<g>
	<path class="st5" d="M253.4,79.1c30.6,22.5,50.5,58.7,50.5,99.6c0,11.3-1.5,22.3-4.4,32.7"/>
</g>
<g>
	<path class="st4" d="M62.3,232.2l1.4-0.7l10.5-5.7l1.3-0.8l1.6,3l-1.4,0.7l-9.2,5l2,3.7l-2.6,1.4L62.3,232.2z"/>
	<path class="st4" d="M71.3,247.6c-2.4-3.5,0.3-5.5,2.5-7l2.8-1.9c2.2-1.5,5.1-3.4,7.5,0.1c2.4,3.5,0,5.3-2.5,7l-2.8,1.9
		C76.3,249.4,73.7,251.1,71.3,247.6z M75.2,243.8c-1.2,0.9-1.9,1.3-1.4,2.1c0.5,0.8,1.2,0.3,2.5-0.6l3.9-2.7
		c1.2-0.9,1.9-1.3,1.4-2.1c-0.5-0.8-1.2-0.3-2.5,0.6L75.2,243.8z"/>
	<path class="st4" d="M79.5,255.6l9-7.9l1.1-1l1.9,2.1l-3.4,7l0.1,0.1l4.2-3.7l1.1-1l2.1,2.4l-1.2,1l-9,7.9l-1.1,1l-1.9-2.1l3.4-7
		l-0.1-0.1l-4.2,3.7l-1.1,1l-2.1-2.4L79.5,255.6z"/>
	<path class="st4" d="M99.1,271c-1.7,2-3.6,2.9-6.1,0.6l-3.4-3l1-1.1l8-9l1-1.2l3.4,3c2.4,2.2,1.9,4,0.1,6.2L99.1,271z M100.5,264.5
		c0.7-0.8,1.1-1.3,0.3-2l-0.6-0.5l-6,6.8l0.6,0.5c0.8,0.7,1.3,0.2,2-0.5L100.5,264.5z"/>
	<path class="st4" d="M104.9,281.4c-3.5-2.4-1.6-5.2-0.1-7.5l2-2.8c1.6-2.2,3.6-4.9,7-2.5c3.5,2.4,1.8,5,0.1,7.5l-2,2.8
		C110.2,281.4,108.4,283.8,104.9,281.4z M107.2,276.4c-0.9,1.2-1.3,1.9-0.6,2.5c0.8,0.5,1.2-0.1,2.1-1.4l2.7-3.9
		c0.9-1.2,1.3-1.9,0.6-2.5c-0.8-0.5-1.2,0.1-2.1,1.4L107.2,276.4z"/>
	<path class="st4" d="M115.4,286l5.7-10.6l0.7-1.4l2.5,1.3l-0.8,7.7l0.1,0.1l2.7-5l0.7-1.4l2.8,1.5l-0.7,1.3l-5.7,10.6l-0.7,1.4
		l-2.5-1.3l0.8-7.7l-0.1-0.1l-2.7,5l-0.7,1.4l-2.8-1.5L115.4,286z"/>
	<path class="st4" d="M148.7,289.7c-0.6,2-1.6,2.4-2.9,2.5l0,0c1,0.6,1.4,2.1,0.8,3.7l-0.7,2.2c-0.3,0.9-0.5,1.4-0.4,2.1l-0.1,0.2
		l-3.1-1c-0.1-0.4,0-1,0.2-1.6l0.9-2.8c0.4-1.2,0.2-1.7-0.8-2.1l-0.5-0.1l-1.5,4.6l-0.4,1.5l-3.3-1l0.5-1.5l3.7-11.4l0.4-1.5
		l4.4,1.4C148.6,285.7,149.4,287.3,148.7,289.7L148.7,289.7z M143.1,290.1l0.6,0.2c0.9,0.3,1.3,0,1.6-1l0.1-0.3
		c0.3-0.9,0.1-1.4-0.8-1.7l-0.6-0.2L143.1,290.1z"/>
	<path class="st4" d="M156.5,296.8l-0.6,3l4,0.8l-0.6,3l-7.4-1.5l0.3-1.5l2.4-11.7l0.3-1.5l7.3,1.5l-0.6,3l-4-0.8l-0.6,2.9l3.5,0.7
		l-0.6,3L156.5,296.8z"/>
	<path class="st4" d="M170,298.8l-0.4,4.5l-0.1,1.5l-3.4-0.3l0.2-1.5l1.1-11.9l0.1-1.5l7.3,0.7l-0.3,3l-3.9-0.4l-0.3,3l3.5,0.3
		l-0.3,3L170,298.8z"/>
	<path class="st4" d="M183.3,299.4l0,3.1l4.1-0.1l0,3l-7.5,0.1l0-1.5l-0.2-12l0-1.5l7.4-0.1l0,3l-4,0.1l0,3l3.6-0.1l0,3L183.3,299.4
		z"/>
	<path class="st4" d="M201.4,292.8c0.2,2.1-0.4,2.8-1.5,3.5l0,0c1.2,0.2,2.1,1.3,2.3,3.1l0.3,2.3c0.1,0.9,0.2,1.5,0.5,2l0,0.2
		l-3.2,0.4c-0.2-0.3-0.4-0.9-0.5-1.6l-0.4-3c-0.1-1.2-0.5-1.7-1.6-1.5l-0.5,0.1l0.6,4.7l0.2,1.5l-3.4,0.4l-0.2-1.5l-1.4-11.9
		l-0.2-1.5l4.6-0.5c2.6-0.3,4.1,0.9,4.3,3.2L201.4,292.8z M196.5,295.5l0.6-0.1c0.9-0.1,1.2-0.6,1.1-1.6l0-0.3
		c-0.1-1-0.5-1.3-1.4-1.2l-0.6,0.1L196.5,295.5z"/>
	<path class="st4" d="M211.5,296l0.7,3l4-0.9l0.7,2.9l-7.3,1.7l-0.3-1.5l-2.7-11.7l-0.4-1.5l7.2-1.7l0.7,2.9l-3.9,0.9l0.7,2.9
		l3.5-0.8l0.7,2.9L211.5,296z"/>
	<path class="st4" d="M224.6,292.3l1,2.9l3.9-1.4l1,2.8l-7.1,2.5l-0.5-1.5l-4-11.3l-0.5-1.4l7-2.5l1,2.8l-3.8,1.3l1,2.8l3.4-1.2
		l1,2.8L224.6,292.3z"/>
	<path class="st4" d="M236.6,288.1l0.4,0.8c0.6,1.3,1.5,1.6,2.4,1.2c0.8-0.4,1-1.1,0.6-1.8c-0.4-0.8-1.2-1.1-2.8-1.3l-1.8-0.2
		c-2-0.2-3-1-3.7-2.5c-1.2-2.5-0.1-4.7,2.2-5.8c2.1-1,4.5-0.7,6,2.3l0.3,0.6l-2.7,1.3l-0.2-0.4c-0.6-1.3-1.4-1.7-2.3-1.2
		c-0.7,0.3-1,0.9-0.6,1.7c0.2,0.5,0.6,0.8,2.4,1l1.8,0.2c3,0.3,4,2.1,4.3,2.7c1.2,2.5,0.3,4.7-2.2,5.9c-2.3,1.1-5,1-6.5-2l-0.5-1
		L236.6,288.1z"/>
	<path class="st4" d="M258.7,269.7l-2.7,2l-0.1-0.2c-0.9-1.2-1.4-1.9-2.1-1.3c-0.8,0.6-0.3,1.2,0.6,2.5l2.8,3.9
		c1,1.4,1.5,2.1,2.3,1.5c0.9-0.7,0.4-1.5-0.2-2.3l-0.5-0.7l-1.1,0.8l-1.6-2.3l3.6-2.6l4.8,6.7l-0.8,0.6l-1.1-0.5l0,0
		c-0.2,1.2-0.6,2.1-1.7,2.9c-3,2.2-5.3-0.5-6.7-2.6l-2-2.8c-1.6-2.3-3.5-5,0-7.5c3.1-2.3,5-0.3,6.6,1.9L258.7,269.7z"/>
	<path class="st4" d="M268.8,258.9c1.4,1.6,1.3,2.5,0.8,3.7l0,0c1.1-0.6,2.5-0.1,3.7,1.1l1.5,1.7c0.6,0.7,1,1.1,1.6,1.4l0.1,0.2
		l-2.4,2.2c-0.4-0.1-0.9-0.5-1.3-1l-2-2.2c-0.8-0.9-1.4-1-2.2-0.3l-0.3,0.3l3.2,3.5l1.1,1.1l-2.5,2.3l-1-1.1L261,263l-1.1-1.1
		l3.4-3.1C265.3,257,267.1,257.1,268.8,258.9L268.8,258.9z M266.4,263.9l0.4-0.4c0.7-0.6,0.6-1.2,0-1.9l-0.2-0.2
		c-0.7-0.7-1.2-0.8-1.8-0.2l-0.4,0.4L266.4,263.9z"/>
	<path class="st4" d="M284.1,259.3c-2.8,3.2-5.4,1.1-7.4-0.7l-2.6-2.2c-2-1.8-4.5-4.1-1.7-7.3c2.8-3.2,5.1-1.3,7.4,0.7l2.6,2.2
		C284.7,254,286.9,256.1,284.1,259.3z M279.4,256.5c1.1,1,1.8,1.5,2.4,0.8c0.6-0.7,0-1.3-1.1-2.2l-3.6-3.1c-1.1-1-1.8-1.5-2.4-0.8
		c-0.6,0.7,0,1.3,1.1,2.2L279.4,256.5z"/>
	<path class="st4" d="M283.5,234.7l1.3,0.9l7.9,5.4c2.2,1.5,2.6,3.6,1.1,5.9s-3.7,2.7-5.9,1.2l-7.9-5.4l-1.3-0.8l1.9-2.8l1.3,0.9
		l7.8,5.3c0.7,0.5,1.2,0.6,1.6,0c0.4-0.6,0.2-1-0.5-1.5l-9-6.2L283.5,234.7z"/>
	<path class="st4" d="M295.1,224.8c2.1,1.1,2.8,2.9,1.6,5.2l-0.6,1.1l3.8,2l1.4,0.7l-1.6,3l-1.3-0.7l-10.6-5.6l-1.4-0.7l2.2-4.1
		c1.2-2.4,3-2.8,5.1-1.7L295.1,224.8z M293.5,229.9l0.3-0.5c0.4-0.8,0.2-1.3-0.7-1.8l-0.6-0.3c-0.9-0.5-1.4-0.3-1.8,0.5l-0.3,0.5
		L293.5,229.9z"/>
</g>
</svg>
