<?xml version="1.0" encoding="utf-8"?>
<!-- Generator: Adobe Illustrator 25.0.1, SVG Export Plug-In . SVG Version: 6.00 Build 0)  -->
<svg version="1.1" id="Layer_1" xmlns="http://www.w3.org/2000/svg" xmlns:xlink="http://www.w3.org/1999/xlink" x="0px" y="0px"
	 viewBox="0 0 112.57 112.57" style="enable-background:new 0 0 112.57 112.57;" xml:space="preserve">
<style type="text/css">
	.st0{fill:#282827;}
	.st1{fill:#F15822;}
	.st2{fill:#FFFFFF;}
	.st3{fill:none;stroke:#FFFFFF;stroke-width:3;stroke-miterlimit:10;}
	.st4{fill:none;stroke:#FFFFFF;stroke-width:0.75;stroke-miterlimit:10;}
</style>
<g>
	<circle class="st0" cx="56.43" cy="56.29" r="56.29"/>
</g>
<path class="st1" d="M38.67,58.99l1.39-3.95h3.01l-1.44,8.26H25.18l0.46-3.12l2.56-0.86l2.46-17.13l-2.27-1.04l0.43-2.98l9.89-0.18
	l-0.46,3.16l-2.66,1.04l-2.46,16.8H38.67z"/>
<path class="st1" d="M74.82,63.73c-5.26,0-8.67-3.48-8.67-9.37c0-9.91,5.45-16.8,13.01-16.8c3.88,0,7.23,1.69,7.23,1.69l-1.02,6.39
	h-2.73l-0.43-2.98c0,0-1.81-0.61-3.68-0.61c-4.5,0-7.13,5.6-7.13,11.31c0,3.84,1.87,5.92,4.73,5.92c1.48,0,2.66-0.29,3.65-0.68
	l0.72-4.7l-2.46-0.83l0.43-2.87l9.23-0.18l-0.43,3.05l-2.33,0.83l-1.02,7.29C81.91,62.4,78.79,63.73,74.82,63.73z"/>
<path class="st2" d="M26.85,68.52v3.51h0.83v0.88h-2.19v-4.39H26.85z"/>
<path class="st2" d="M30.92,70.57v0.88c0,0.32-0.02,0.56-0.06,0.71c-0.04,0.15-0.12,0.29-0.25,0.42s-0.29,0.23-0.49,0.29
	c-0.2,0.06-0.43,0.09-0.69,0.09c-0.29,0-0.53-0.03-0.73-0.08c-0.2-0.05-0.36-0.13-0.47-0.24s-0.19-0.24-0.24-0.39
	c-0.05-0.15-0.07-0.38-0.07-0.69v-0.92c0-0.33,0.04-0.6,0.13-0.78c0.09-0.19,0.24-0.34,0.46-0.45c0.22-0.11,0.51-0.17,0.86-0.17
	c0.29,0,0.54,0.04,0.75,0.11c0.21,0.07,0.37,0.17,0.49,0.29c0.11,0.12,0.19,0.24,0.23,0.36C30.9,70.13,30.92,70.32,30.92,70.57z
	 M29.61,70.3c0-0.18-0.01-0.3-0.04-0.35c-0.02-0.05-0.07-0.07-0.15-0.07c-0.08,0-0.13,0.02-0.16,0.07s-0.04,0.16-0.04,0.35v1.62
	c0,0.17,0.01,0.28,0.04,0.33c0.03,0.05,0.08,0.08,0.15,0.08c0.08,0,0.13-0.02,0.15-0.07c0.02-0.05,0.04-0.15,0.04-0.3V70.3z"/>
<path class="st2" d="M32.67,69.31l-0.02,0.33c0.09-0.13,0.21-0.23,0.35-0.3s0.29-0.1,0.47-0.1c0.22,0,0.41,0.04,0.55,0.13
	s0.23,0.2,0.27,0.33c0.04,0.13,0.06,0.36,0.06,0.67v2.52h-1.3v-2.49c0-0.25-0.01-0.4-0.03-0.45c-0.02-0.05-0.07-0.08-0.16-0.08
	c-0.09,0-0.15,0.03-0.17,0.09c-0.02,0.06-0.04,0.23-0.04,0.5v2.43h-1.3v-3.6H32.67z"/>
<path class="st2" d="M37.77,68.52v4.39h-1.3v-0.26c-0.12,0.11-0.26,0.19-0.39,0.24c-0.14,0.05-0.28,0.08-0.43,0.08
	c-0.2,0-0.38-0.04-0.53-0.13c-0.15-0.09-0.24-0.19-0.29-0.31c-0.04-0.12-0.06-0.31-0.06-0.57v-1.68c0-0.28,0.02-0.47,0.06-0.59
	c0.04-0.12,0.14-0.22,0.29-0.3c0.15-0.09,0.33-0.13,0.54-0.13c0.16,0,0.31,0.02,0.44,0.07c0.13,0.05,0.26,0.12,0.37,0.22v-1.02
	H37.77z M36.46,70.22c0-0.13-0.01-0.22-0.04-0.27c-0.03-0.05-0.08-0.07-0.16-0.07c-0.08,0-0.13,0.02-0.16,0.06
	c-0.03,0.04-0.04,0.13-0.04,0.27v1.76c0,0.15,0.01,0.24,0.04,0.29c0.03,0.05,0.08,0.07,0.15,0.07c0.08,0,0.14-0.03,0.17-0.08
	c0.03-0.05,0.04-0.18,0.04-0.38V70.22z"/>
<path class="st2" d="M41.19,70.57v0.88c0,0.32-0.02,0.56-0.06,0.71c-0.04,0.15-0.12,0.29-0.25,0.42c-0.13,0.13-0.29,0.23-0.49,0.29
	c-0.2,0.06-0.43,0.09-0.69,0.09c-0.29,0-0.53-0.03-0.73-0.08c-0.2-0.05-0.36-0.13-0.47-0.24s-0.19-0.24-0.24-0.39
	c-0.05-0.15-0.07-0.38-0.07-0.69v-0.92c0-0.33,0.04-0.6,0.13-0.78c0.09-0.19,0.24-0.34,0.46-0.45c0.22-0.11,0.51-0.17,0.86-0.17
	c0.29,0,0.54,0.04,0.75,0.11c0.21,0.07,0.37,0.17,0.49,0.29c0.11,0.12,0.19,0.24,0.23,0.36C41.17,70.13,41.19,70.32,41.19,70.57z
	 M39.88,70.3c0-0.18-0.01-0.3-0.04-0.35c-0.02-0.05-0.07-0.07-0.15-0.07c-0.08,0-0.13,0.02-0.16,0.07s-0.04,0.16-0.04,0.35v1.62
	c0,0.17,0.01,0.28,0.04,0.33c0.03,0.05,0.08,0.08,0.15,0.08c0.08,0,0.13-0.02,0.15-0.07c0.02-0.05,0.04-0.15,0.04-0.3V70.3z"/>
<path class="st2" d="M42.94,69.31l-0.02,0.33c0.09-0.13,0.21-0.23,0.35-0.3s0.29-0.1,0.47-0.1c0.22,0,0.41,0.04,0.55,0.13
	c0.14,0.09,0.23,0.2,0.27,0.33c0.04,0.13,0.06,0.36,0.06,0.67v2.52h-1.3v-2.49c0-0.25-0.01-0.4-0.03-0.45
	c-0.02-0.05-0.07-0.08-0.16-0.08c-0.09,0-0.15,0.03-0.17,0.09c-0.02,0.06-0.04,0.23-0.04,0.5v2.43h-1.3v-3.6H42.94z"/>
<path class="st2" d="M46.28,68.52h0.96c0.64,0,1.08,0.02,1.3,0.06c0.23,0.04,0.41,0.15,0.56,0.32c0.14,0.17,0.21,0.44,0.21,0.82
	c0,0.34-0.05,0.57-0.15,0.69c-0.1,0.12-0.3,0.19-0.6,0.21c0.27,0.06,0.45,0.13,0.54,0.22c0.09,0.09,0.15,0.18,0.17,0.26
	s0.03,0.29,0.03,0.65v1.16h-1.26v-1.46c0-0.23-0.02-0.38-0.07-0.44c-0.04-0.06-0.16-0.08-0.35-0.08v1.98h-1.36V68.52z M47.64,69.27
	v0.98c0.15,0,0.26-0.02,0.32-0.05c0.06-0.04,0.09-0.15,0.09-0.34v-0.24c0-0.14-0.03-0.23-0.09-0.27
	C47.9,69.29,47.79,69.27,47.64,69.27z"/>
<path class="st2" d="M52.75,71.17h-1.69v0.78c0,0.16,0.01,0.27,0.04,0.31c0.03,0.05,0.08,0.07,0.16,0.07c0.1,0,0.17-0.03,0.2-0.09
	c0.03-0.06,0.05-0.18,0.05-0.36v-0.47h1.24v0.27c0,0.22-0.02,0.39-0.05,0.51c-0.03,0.12-0.11,0.25-0.23,0.38
	c-0.12,0.14-0.28,0.24-0.47,0.3s-0.42,0.1-0.71,0.1c-0.28,0-0.52-0.03-0.73-0.1c-0.21-0.07-0.37-0.16-0.49-0.27
	c-0.12-0.12-0.2-0.24-0.24-0.38s-0.07-0.34-0.07-0.61v-1.05c0-0.31,0.05-0.56,0.15-0.74c0.1-0.18,0.27-0.32,0.5-0.42
	s0.5-0.15,0.79-0.15c0.37,0,0.67,0.06,0.91,0.17c0.24,0.12,0.4,0.27,0.5,0.46s0.14,0.46,0.14,0.81V71.17z M51.44,70.59v-0.26
	c0-0.19-0.01-0.31-0.04-0.36c-0.02-0.05-0.07-0.08-0.14-0.08c-0.09,0-0.15,0.02-0.17,0.07c-0.02,0.05-0.03,0.17-0.03,0.37v0.26
	H51.44z"/>
<path class="st2" d="M54.84,68.52v0.56c-0.27,0-0.43,0.01-0.48,0.03c-0.05,0.02-0.07,0.08-0.07,0.18v0.11h0.55v0.57h-0.31v2.94h-1.3
	v-2.94h-0.27V69.4h0.27c0-0.24,0.01-0.39,0.03-0.47s0.07-0.15,0.14-0.21c0.08-0.06,0.18-0.11,0.32-0.14
	c0.14-0.03,0.35-0.05,0.64-0.05H54.84z"/>
<path class="st2" d="M58.04,71.17h-1.69v0.78c0,0.16,0.01,0.27,0.04,0.31c0.03,0.05,0.08,0.07,0.16,0.07c0.1,0,0.17-0.03,0.2-0.09
	c0.03-0.06,0.05-0.18,0.05-0.36v-0.47h1.24v0.27c0,0.22-0.02,0.39-0.05,0.51c-0.03,0.12-0.11,0.25-0.23,0.38
	c-0.12,0.14-0.28,0.24-0.47,0.3s-0.42,0.1-0.71,0.1c-0.28,0-0.52-0.03-0.73-0.1c-0.21-0.07-0.37-0.16-0.49-0.27
	c-0.12-0.12-0.2-0.24-0.24-0.38s-0.07-0.34-0.07-0.61v-1.05c0-0.31,0.05-0.56,0.15-0.74c0.1-0.18,0.27-0.32,0.5-0.42
	s0.5-0.15,0.79-0.15c0.37,0,0.67,0.06,0.91,0.17c0.24,0.12,0.4,0.27,0.5,0.46s0.14,0.46,0.14,0.81V71.17z M56.73,70.59v-0.26
	c0-0.19-0.01-0.31-0.04-0.36c-0.02-0.05-0.07-0.08-0.14-0.08c-0.09,0-0.15,0.02-0.17,0.07c-0.02,0.05-0.03,0.17-0.03,0.37v0.26
	H56.73z"/>
<path class="st2" d="M59.77,69.31l-0.05,0.47c0.19-0.34,0.46-0.52,0.82-0.54v1.27c-0.24,0-0.41,0.03-0.53,0.08
	c-0.11,0.05-0.18,0.13-0.21,0.23s-0.04,0.32-0.04,0.67v1.42h-1.3v-3.6H59.77z"/>
<path class="st2" d="M63.79,71.17H62.1v0.78c0,0.16,0.01,0.27,0.04,0.31c0.03,0.05,0.08,0.07,0.16,0.07c0.1,0,0.17-0.03,0.2-0.09
	c0.03-0.06,0.05-0.18,0.05-0.36v-0.47h1.24v0.27c0,0.22-0.02,0.39-0.05,0.51c-0.03,0.12-0.11,0.25-0.23,0.38
	c-0.12,0.14-0.28,0.24-0.47,0.3s-0.42,0.1-0.71,0.1c-0.28,0-0.52-0.03-0.73-0.1s-0.38-0.16-0.49-0.27c-0.12-0.12-0.2-0.24-0.24-0.38
	c-0.04-0.14-0.07-0.34-0.07-0.61v-1.05c0-0.31,0.05-0.56,0.15-0.74c0.1-0.18,0.27-0.32,0.5-0.42c0.23-0.1,0.5-0.15,0.79-0.15
	c0.37,0,0.67,0.06,0.91,0.17c0.24,0.12,0.41,0.27,0.5,0.46s0.14,0.46,0.14,0.81V71.17z M62.48,70.59v-0.26
	c0-0.19-0.01-0.31-0.04-0.36c-0.02-0.05-0.07-0.08-0.15-0.08c-0.09,0-0.15,0.02-0.17,0.07c-0.02,0.05-0.03,0.17-0.03,0.37v0.26
	H62.48z"/>
<path class="st2" d="M67.16,71.17h-1.69v0.78c0,0.16,0.01,0.27,0.04,0.31c0.03,0.05,0.08,0.07,0.16,0.07c0.1,0,0.17-0.03,0.2-0.09
	c0.03-0.06,0.05-0.18,0.05-0.36v-0.47h1.24v0.27c0,0.22-0.02,0.39-0.05,0.51c-0.03,0.12-0.11,0.25-0.23,0.38
	c-0.12,0.14-0.28,0.24-0.47,0.3s-0.42,0.1-0.71,0.1c-0.28,0-0.52-0.03-0.73-0.1s-0.38-0.16-0.49-0.27c-0.12-0.12-0.2-0.24-0.24-0.38
	c-0.04-0.14-0.07-0.34-0.07-0.61v-1.05c0-0.31,0.05-0.56,0.15-0.74c0.1-0.18,0.27-0.32,0.5-0.42c0.23-0.1,0.5-0.15,0.79-0.15
	c0.37,0,0.67,0.06,0.91,0.17c0.24,0.12,0.41,0.27,0.5,0.46s0.14,0.46,0.14,0.81V71.17z M65.86,70.59v-0.26
	c0-0.19-0.01-0.31-0.04-0.36c-0.02-0.05-0.07-0.08-0.15-0.08c-0.09,0-0.15,0.02-0.17,0.07c-0.02,0.05-0.03,0.17-0.03,0.37v0.26
	H65.86z"/>
<path class="st2" d="M70.25,70.46H69.1v-0.2c0-0.17-0.01-0.27-0.03-0.32s-0.08-0.07-0.17-0.07c-0.07,0-0.13,0.02-0.16,0.06
	c-0.04,0.04-0.05,0.1-0.05,0.18c0,0.11,0.01,0.19,0.03,0.24c0.02,0.05,0.07,0.11,0.16,0.17c0.09,0.06,0.28,0.15,0.56,0.27
	c0.38,0.16,0.63,0.3,0.75,0.44c0.12,0.14,0.18,0.34,0.18,0.6c0,0.29-0.04,0.51-0.14,0.66c-0.09,0.15-0.24,0.26-0.45,0.34
	c-0.21,0.08-0.47,0.12-0.77,0.12c-0.33,0-0.61-0.04-0.85-0.13c-0.24-0.09-0.4-0.2-0.49-0.35c-0.09-0.15-0.13-0.37-0.13-0.67v-0.17
	h1.16v0.23c0,0.19,0.01,0.32,0.04,0.38c0.03,0.06,0.09,0.09,0.17,0.09c0.09,0,0.16-0.02,0.19-0.06c0.04-0.04,0.05-0.12,0.05-0.25
	c0-0.17-0.02-0.28-0.07-0.32c-0.05-0.04-0.3-0.17-0.76-0.38c-0.38-0.18-0.62-0.34-0.7-0.49c-0.08-0.15-0.13-0.32-0.13-0.52
	c0-0.29,0.04-0.5,0.14-0.64c0.09-0.14,0.24-0.24,0.46-0.32c0.22-0.07,0.47-0.11,0.75-0.11c0.28,0,0.53,0.03,0.72,0.09
	c0.2,0.06,0.35,0.14,0.46,0.24c0.11,0.1,0.17,0.19,0.19,0.28s0.03,0.22,0.03,0.4V70.46z"/>
<path class="st2" d="M75.02,70.13h-1.36v-0.4c0-0.25-0.01-0.41-0.04-0.47c-0.03-0.06-0.09-0.09-0.18-0.09
	c-0.08,0-0.14,0.03-0.17,0.08s-0.04,0.19-0.04,0.42v2.1c0,0.2,0.01,0.33,0.04,0.39s0.09,0.09,0.18,0.09c0.1,0,0.17-0.04,0.2-0.11
	c0.04-0.07,0.05-0.21,0.05-0.41v-0.52h-0.27v-0.67h1.59v2.35h-0.85l-0.13-0.31c-0.09,0.14-0.21,0.24-0.35,0.31
	c-0.14,0.07-0.31,0.1-0.5,0.1c-0.23,0-0.44-0.05-0.64-0.14c-0.2-0.09-0.35-0.21-0.45-0.35c-0.1-0.14-0.17-0.28-0.19-0.43
	c-0.03-0.15-0.04-0.38-0.04-0.68v-1.3c0-0.42,0.03-0.72,0.08-0.91s0.21-0.36,0.46-0.52s0.58-0.24,0.99-0.24
	c0.4,0,0.73,0.07,0.99,0.21c0.26,0.14,0.43,0.3,0.51,0.49c0.08,0.19,0.12,0.46,0.12,0.82V70.13z"/>
<path class="st2" d="M76.81,69.31l-0.05,0.47c0.19-0.34,0.46-0.52,0.82-0.54v1.27c-0.24,0-0.41,0.03-0.53,0.08
	c-0.11,0.05-0.18,0.13-0.21,0.23s-0.04,0.32-0.04,0.67v1.42h-1.3v-3.6H76.81z"/>
<path class="st2" d="M80.83,70.57v0.88c0,0.32-0.02,0.56-0.06,0.71c-0.04,0.15-0.12,0.29-0.25,0.42s-0.29,0.23-0.49,0.29
	c-0.2,0.06-0.43,0.09-0.69,0.09c-0.29,0-0.53-0.03-0.73-0.08c-0.2-0.05-0.36-0.13-0.47-0.24c-0.11-0.11-0.19-0.24-0.24-0.39
	c-0.05-0.15-0.07-0.38-0.07-0.69v-0.92c0-0.33,0.04-0.6,0.13-0.78c0.09-0.19,0.24-0.34,0.46-0.45s0.51-0.17,0.86-0.17
	c0.29,0,0.54,0.04,0.75,0.11s0.37,0.17,0.49,0.29c0.11,0.12,0.19,0.24,0.23,0.36C80.81,70.13,80.83,70.32,80.83,70.57z M79.52,70.3
	c0-0.18-0.01-0.3-0.04-0.35s-0.07-0.07-0.15-0.07c-0.08,0-0.13,0.02-0.16,0.07c-0.03,0.05-0.04,0.16-0.04,0.35v1.62
	c0,0.17,0.01,0.28,0.04,0.33c0.03,0.05,0.08,0.08,0.15,0.08c0.08,0,0.13-0.02,0.15-0.07s0.04-0.15,0.04-0.3V70.3z"/>
<path class="st2" d="M84.24,69.31v3.6h-1.33l0.02-0.3c-0.09,0.12-0.2,0.21-0.33,0.27c-0.13,0.06-0.28,0.09-0.46,0.09
	c-0.2,0-0.36-0.03-0.49-0.09c-0.13-0.06-0.22-0.13-0.29-0.23c-0.06-0.1-0.1-0.2-0.11-0.3s-0.02-0.31-0.02-0.62v-2.42h1.3v2.45
	c0,0.28,0.01,0.45,0.03,0.5c0.02,0.05,0.08,0.08,0.17,0.08c0.1,0,0.15-0.03,0.17-0.08c0.02-0.05,0.03-0.23,0.03-0.52v-2.42H84.24z"
	/>
<path class="st2" d="M86.04,69.31l-0.02,0.32c0.12-0.13,0.24-0.22,0.38-0.29c0.14-0.06,0.29-0.1,0.46-0.1c0.2,0,0.38,0.05,0.52,0.14
	c0.15,0.09,0.24,0.2,0.28,0.32c0.04,0.12,0.05,0.32,0.05,0.61v1.51c0,0.33-0.02,0.56-0.07,0.7c-0.05,0.14-0.14,0.25-0.28,0.33
	c-0.14,0.08-0.32,0.12-0.52,0.12c-0.16,0-0.31-0.03-0.45-0.09c-0.14-0.06-0.26-0.16-0.38-0.28v0.82h-1.3v-4.11H86.04z M86.41,70.36
	c0-0.22-0.01-0.36-0.03-0.4c-0.02-0.05-0.07-0.07-0.16-0.07c-0.09,0-0.14,0.03-0.17,0.08c-0.02,0.05-0.04,0.19-0.04,0.39v1.49
	c0,0.22,0.01,0.35,0.04,0.41s0.08,0.08,0.17,0.08c0.08,0,0.14-0.02,0.16-0.07c0.02-0.05,0.03-0.17,0.03-0.36V70.36z"/>
<g>
	<circle class="st3" cx="56.56" cy="56.25" r="43.68"/>
</g>
<path class="st2" d="M45.56,75.37h0.24v0.75h0.97v-0.75H47v1.8h-0.24v-0.85h-0.97v0.85h-0.24V75.37z"/>
<path class="st2" d="M47.32,76.27c0-0.55,0.4-0.95,0.94-0.95c0.54,0,0.94,0.4,0.94,0.95s-0.4,0.95-0.94,0.95
	C47.72,77.23,47.32,76.83,47.32,76.27z M48.95,76.27c0-0.44-0.29-0.75-0.69-0.75c-0.41,0-0.69,0.31-0.69,0.75
	c0,0.44,0.29,0.75,0.69,0.75C48.67,77.02,48.95,76.71,48.95,76.27z"/>
<path class="st2" d="M49.43,76.27c0-0.58,0.43-0.94,0.94-0.94c0.22,0,0.46,0.08,0.61,0.19v0.25c-0.14-0.13-0.34-0.24-0.61-0.24
	c-0.41,0-0.7,0.29-0.7,0.74c0,0.45,0.29,0.74,0.7,0.74c0.27,0,0.47-0.11,0.61-0.24v0.25c-0.15,0.11-0.39,0.19-0.61,0.19
	C49.86,77.21,49.43,76.86,49.43,76.27z"/>
<path class="st2" d="M51.32,75.37h0.24v0.85l0.82-0.85h0.27l-0.84,0.86l0.96,0.94h-0.31l-0.9-0.89v0.89h-0.24V75.37z"/>
<path class="st2" d="M52.94,75.37h1.07v0.2h-0.83v0.55h0.69v0.2h-0.69v0.65h0.83v0.2h-1.07V75.37z"/>
<path class="st2" d="M54.86,76.45l-0.69-1.08h0.26l0.56,0.89l0.56-0.89h0.24l-0.69,1.08v0.72h-0.24V76.45z"/>
<path class="st2" d="M56.51,75.37h0.58c0.4,0,0.58,0.24,0.58,0.53c0,0.23-0.11,0.43-0.36,0.5l0.54,0.77h-0.27l-0.51-0.75h-0.31v0.75
	h-0.24V75.37z M57.09,76.23c0.27,0,0.34-0.16,0.34-0.33c0-0.17-0.08-0.33-0.34-0.33h-0.35v0.66H57.09z"/>
<path class="st2" d="M58.05,75.37h1.07v0.2h-0.83v0.55h0.69v0.2h-0.69v0.65h0.83v0.2h-1.07V75.37z"/>
<path class="st2" d="M59.47,75.37h1.07v0.2H59.7v0.55h0.69v0.2H59.7v0.85h-0.24V75.37z"/>
<path class="st2" d="M60.78,75.37h1.07v0.2h-0.83v0.55h0.69v0.2h-0.69v0.65h0.83v0.2h-1.07V75.37z"/>
<path class="st2" d="M62.19,75.37h0.58c0.4,0,0.58,0.24,0.58,0.53c0,0.23-0.11,0.43-0.37,0.5l0.54,0.77h-0.27l-0.51-0.75h-0.32v0.75
	h-0.24V75.37z M62.77,76.23c0.26,0,0.34-0.16,0.34-0.33c0-0.17-0.08-0.33-0.34-0.33h-0.35v0.66H62.77z"/>
<path class="st2" d="M63.73,75.37h1.07v0.2h-0.83v0.55h0.69v0.2h-0.69v0.65h0.83v0.2h-1.07V75.37z"/>
<path class="st2" d="M65.15,75.37h1.07v0.2h-0.83v0.55h0.69v0.2h-0.69v0.65h0.83v0.2h-1.07V75.37z"/>
<path class="st2" d="M66.47,76.99l0.05-0.22c0.11,0.12,0.28,0.25,0.54,0.25c0.21,0,0.37-0.12,0.37-0.32c0-0.18-0.09-0.29-0.42-0.38
	c-0.33-0.09-0.49-0.27-0.49-0.53c0-0.26,0.21-0.47,0.57-0.47c0.2,0,0.38,0.08,0.48,0.17l-0.05,0.19c-0.12-0.09-0.28-0.16-0.43-0.16
	c-0.22,0-0.35,0.11-0.35,0.27c0,0.13,0.08,0.24,0.36,0.31c0.38,0.1,0.55,0.27,0.55,0.57c0,0.35-0.29,0.53-0.59,0.53
	C66.77,77.21,66.57,77.1,66.47,76.99z"/>
<circle class="st4" cx="56.56" cy="56.29" r="48.73"/>
<path class="st1" d="M61.16,55.22c-0.39-1.26-0.89-2.41-1.35-2.91c3.22-1.22,5.22-4.06,5.22-8.19c0-4.02-3.06-5.96-6.73-5.96h-3.15
	l-7.29,0.18l-0.43,2.98l2.23,1.08L47.2,59.46l-2.56,0.9l-0.46,3.12h9.72l0.46-3.12l-2.27-0.9l0.85-5.92c2.14,0,3.09,0.5,3.75,3.12
	l1.77,6.82h5.75l0.46-3.12l-2.23-0.9L61.16,55.22z M57.6,49.41c-1.21,0.83-2.82,0.64-3.81-0.37l-0.28,0.19
	c-0.23,0.16-0.55,0.1-0.71-0.13c-0.16-0.23-0.1-0.55,0.13-0.71l0.28-0.19c-0.59-1.29-0.19-2.86,1.02-3.69l5.41-3.72l1.41,2.05
	l-2.98,2.05c0.15,0.15,0.3,0.39,0.3,0.39C59.29,46.63,58.95,48.48,57.6,49.41z"/>
<rect x="25.2" y="65.84" class="st2" width="62.48" height="0.84"/>
</svg>
