<svg xmlns="http://www.w3.org/2000/svg" viewBox="0 0 48 48"><defs><style>.cls-1{fill:#58595b;}.cls-2{fill:#fff;}</style></defs><g id="Layer_2" data-name="Layer 2"><g id="Icons"><path class="cls-1" d="M48,24A24,24,0,1,1,24,0,24,24,0,0,1,48,24Z"/><path class="cls-2" d="M38.17,12.44a12.12,12.12,0,0,1-3.91,1.47A6.21,6.21,0,0,0,29.77,12a6.1,6.1,0,0,0-6.15,6.06,5.73,5.73,0,0,0,.16,1.38,17.58,17.58,0,0,1-12.69-6.33,5.93,5.93,0,0,0-.83,3.05,6,6,0,0,0,2.74,5,6.24,6.24,0,0,1-2.79-.76v.08a6.09,6.09,0,0,0,4.94,5.94,6.28,6.28,0,0,1-1.63.21,6.42,6.42,0,0,1-1.16-.11,6.16,6.16,0,0,0,5.75,4.21,12.48,12.48,0,0,1-7.64,2.59A14.17,14.17,0,0,1,9,33.28,17.64,17.64,0,0,0,18.44,36,17.25,17.25,0,0,0,36,18.76c0-.26,0-.52,0-.78A12.38,12.38,0,0,0,39,14.84a12.28,12.28,0,0,1-3.53.95A6,6,0,0,0,38.17,12.44Z"/></g></g></svg>