<svg id="Layer_1" data-name="Layer 1" xmlns="http://www.w3.org/2000/svg" viewBox="0 0 371.36 371.36"><defs><style>.cls-1{fill:#282828;}.cls-2{fill:#fff;}.cls-3,.cls-4{fill:none;stroke:#fff;stroke-miterlimit:10;}.cls-3{stroke-width:9.9px;}.cls-4{stroke-width:2.47px;}.cls-5{fill:#f15924;}</style></defs><circle class="cls-1" cx="185.68" cy="185.68" r="185.68"/><path class="cls-2" d="M79.7,250.12l0-1.53V236.65l0-1.54h3.76l0,1.54v10.47h4.63v3Z"/><path class="cls-2" d="M93.44,250.37c-4.63,0-4.76-3.35-4.76-6v-3.4c0-2.71.13-6.07,4.76-6.07s4.75,3,4.75,6.07v3.4C98.19,247.33,98.07,250.37,93.44,250.37Zm-1-5.37c0,1.51,0,2.33,1,2.33s1-.82,1-2.33v-4.76c0-1.51,0-2.33-1-2.33s-1,.82-1,2.33Z"/><path class="cls-2" d="M100,248.59V236.65l0-1.54h3.07l3.27,7.16h.12v-5.62l0-1.54H110l0,1.54v11.94l0,1.53h-3.1L103.58,243h-.12v5.6l0,1.53H100Z"/><path class="cls-2" d="M121.8,245.59c0,2.6-.89,4.53-4.56,4.53h-5l0-1.53V236.65l0-1.54h5c3.57,0,4.51,1.73,4.56,4.54Zm-3.71-5.77c0-1,0-1.7-1.22-1.7H116v9h.86c1.19,0,1.22-.65,1.22-1.7Z"/><path class="cls-2" d="M128.16,250.37c-4.63,0-4.76-3.35-4.76-6v-3.4c0-2.71.13-6.07,4.76-6.07s4.75,3,4.75,6.07v3.4C132.91,247.33,132.79,250.37,128.16,250.37Zm-1-5.37c0,1.51,0,2.33,1,2.33s1-.82,1-2.33v-4.76c0-1.51,0-2.33-1-2.33s-1,.82-1,2.33Z"/><path class="cls-2" d="M134.76,248.59V236.65l0-1.54h3.07l3.27,7.16h.13v-5.62l0-1.54h3.5l0,1.54v11.94l0,1.53h-3.1L138.3,243h-.13v5.6l0,1.53h-3.47Z"/><path class="cls-2" d="M159.93,238.93a3,3,0,0,1-2.13,3.28v0c1.29.3,2.13,1.58,2.13,3.3v2.29a5.13,5.13,0,0,0,.25,2.07v.21h-3.57a3.18,3.18,0,0,1-.29-1.59v-3c0-1.22-.38-1.72-1.54-1.72h-.52v4.76l0,1.53h-3.77l0-1.53V236.65l0-1.54h5.11c2.92,0,4.3,1.33,4.3,3.72ZM154.26,241h.67c1,0,1.36-.44,1.36-1.42v-.28c0-1-.37-1.36-1.36-1.36h-.67Z"/><path class="cls-2" d="M165.45,244.08v3H170v3h-8.25l0-1.53V236.65l0-1.54h8.17v3h-4.43v3h4v3Z"/><path class="cls-2" d="M175.27,244.08v4.51l0,1.53h-3.76l0-1.53V236.65l0-1.54h8.05v3h-4.31v3h3.84v3Z"/><path class="cls-2" d="M184.77,244.08v3h4.51v3H181l0-1.53V236.65l0-1.54h8.18v3h-4.44v3h4v3Z"/><path class="cls-2" d="M200.27,238.93a3,3,0,0,1-2.13,3.28v0c1.29.3,2.13,1.58,2.13,3.3v2.29a5.33,5.33,0,0,0,.24,2.07v.21H197a3.17,3.17,0,0,1-.3-1.59v-3c0-1.22-.37-1.72-1.53-1.72h-.52v4.76l0,1.53h-3.76l0-1.53V236.65l0-1.54H196c2.92,0,4.31,1.33,4.31,3.72ZM194.6,241h.66c1,0,1.37-.44,1.37-1.42v-.28c0-1-.37-1.36-1.37-1.36h-.66Z"/><path class="cls-2" d="M205.78,244.08v3h4.51v3H202l0-1.53V236.65l0-1.54h8.18v3h-4.44v3h4v3Z"/><path class="cls-2" d="M215.61,244.08v3h4.5v3h-8.24l0-1.53V236.65l0-1.54H220v3h-4.43v3h4v3Z"/><path class="cls-2" d="M224.36,244.67v.88c0,1.38.72,2.08,1.81,2.08a1.31,1.31,0,0,0,1.46-1.39c0-.92-.61-1.49-2.13-2.37l-1.63-1c-1.86-1.07-2.5-2.24-2.5-3.8,0-2.81,2.15-4.26,4.88-4.26,2.57,0,4.82,1.3,4.82,4.64v.61h-3.26v-.4c0-1.45-.62-2.1-1.66-2.1-.82,0-1.39.42-1.39,1.24,0,.5.22,1,1.93,2l1.66.93c2.85,1.59,3,3.59,3,4.3,0,2.77-1.9,4.34-4.92,4.34-2.75,0-5.45-1.3-5.45-4.61v-1.09Z"/><path class="cls-2" d="M245.7,240.43H242v-.19c0-1.51,0-2.33-1-2.33s-1,.82-1,2.33V245c0,1.72,0,2.54,1.14,2.54s1.26-1,1.26-1.95v-.88h-1.46v-2.77h4.83v8.18h-1.06l-.67-1.07h0a4.55,4.55,0,0,1-3.39,1.32c-4.09,0-4.33-3.5-4.33-6v-3.4c0-2.77.12-6.07,4.83-6.07,4.23,0,4.65,2.69,4.65,5.42Z"/><path class="cls-2" d="M257.23,238.93a3,3,0,0,1-2.13,3.28v0c1.29.3,2.13,1.58,2.13,3.3v2.29a5.13,5.13,0,0,0,.25,2.07v.21h-3.56a3.07,3.07,0,0,1-.3-1.59v-3c0-1.22-.37-1.72-1.54-1.72h-.52v4.76l0,1.53h-3.77l0-1.53V236.65l0-1.54h5.1c2.93,0,4.31,1.33,4.31,3.72ZM251.56,241h.67c1,0,1.36-.44,1.36-1.42v-.28c0-1-.37-1.36-1.36-1.36h-.67Z"/><path class="cls-2" d="M263.49,250.37c-4.63,0-4.76-3.35-4.76-6v-3.4c0-2.71.13-6.07,4.76-6.07s4.75,3,4.75,6.07v3.4C268.24,247.33,268.12,250.37,263.49,250.37Zm-1-5.37c0,1.51,0,2.33,1,2.33s1-.82,1-2.33v-4.76c0-1.51,0-2.33-1-2.33s-1,.82-1,2.33Z"/><path class="cls-2" d="M279.43,235.11l0,1.54v9.51c0,2.7-1.65,4.21-4.65,4.21s-4.73-1.51-4.73-4.21v-9.51l0-1.54h3.77l0,1.54V246c0,.84.25,1.3,1,1.3s1-.46,1-1.3V235.11Z"/><path class="cls-2" d="M291,240.43c0,2.39-1.34,3.84-4.26,3.84h-1.41v4.32l0,1.53h-3.76l0-1.53V236.65l0-1.54h5.15c2.92,0,4.26,1.33,4.26,3.72Zm-5.67,1H286c1,0,1.36-.44,1.36-1.42v-.7c0-1-.37-1.36-1.36-1.36h-.67Z"/><circle class="cls-3" cx="184.28" cy="185.56" r="144.1"/><path class="cls-2" d="M126.24,256.06v7.77h-2V260.7h-1.11V263l0,.79h-2l0-.79v-6.19l0-.79h2l0,.79v2.3h1.11v-3.09Z"/><path class="cls-2" d="M133,264c-2.47,0-2.53-1.74-2.53-3.14v-1.76c0-1.4.06-3.14,2.53-3.14s2.53,1.58,2.53,3.14v1.76C135.57,262.39,135.5,264,133,264Zm-.55-2.79c0,.78,0,1.21.55,1.21s.55-.43.55-1.21v-2.47c0-.78,0-1.2-.55-1.2s-.55.42-.55,1.2Z"/><path class="cls-2" d="M142.79,259.26v-.55c0-.78,0-1.2-.55-1.2s-.55.42-.55,1.2v2.47c0,.78,0,1.21.55,1.21s.55-.43.55-1.21v-.6h2v.23c0,1.57-.07,3.16-2.53,3.16s-2.53-1.74-2.53-3.15v-1.76c0-1.39.06-3.13,2.53-3.13s2.53,1.58,2.53,3.13v.2Z"/><path class="cls-2" d="M154.27,256.06l-1.91,3.73,2.16,4h-2.24L151,261.28H151v2.55h-2v-7.77h2v2.49H151l1.17-2.49Z"/><path class="cls-2" d="M160.19,260.7v1.58h2.4v1.55H158.2v-7.77h4.35v1.55h-2.36v1.54h2.11v1.55Z"/><path class="cls-2" d="M168,263v-2l-1.94-5h2.08l.59,1.62.29,1.07h.07l.29-1.07.59-1.62h2l-2,5v2l0,.79h-2Z"/><path class="cls-2" d="M184.37,258a1.57,1.57,0,0,1-1.14,1.7v0a1.6,1.6,0,0,1,1.14,1.7v1.19a2.82,2.82,0,0,0,.12,1.07v.11H182.6a1.57,1.57,0,0,1-.16-.82v-1.55c0-.63-.2-.89-.82-.89h-.28V263l0,.79h-2l0-.79v-6.19l0-.79h2.72c1.55,0,2.3.68,2.3,1.92Zm-3,1.06h.36c.53,0,.73-.22.73-.74v-.13c0-.52-.2-.71-.73-.71h-.36Z"/><path class="cls-2" d="M190.61,260.7v1.58H193v1.55h-4.4l0-.79v-6.19l0-.79H193v1.55h-2.36v1.54h2.11v1.55Z"/><path class="cls-2" d="M199.15,260.7v3.13h-2l0-.79v-6.19l0-.79h4.29v1.55h-2.29v1.54h2v1.55Z"/><path class="cls-2" d="M207.51,260.7v1.58h2.4v1.55h-4.39v-7.77h4.35v1.55h-2.36v1.54h2.11v1.55Z"/><path class="cls-2" d="M219.07,258a1.56,1.56,0,0,1-1.14,1.7v0a1.59,1.59,0,0,1,1.14,1.7v1.19a2.61,2.61,0,0,0,.13,1.07v.11h-1.9a1.57,1.57,0,0,1-.16-.82v-1.55c0-.63-.2-.89-.81-.89h-.28v3.26h-2v-7.77h2.71c1.56,0,2.3.68,2.3,1.92Zm-3,1.06h.36c.52,0,.72-.22.72-.74v-.13c0-.52-.2-.71-.72-.71h-.36Z"/><path class="cls-2" d="M225.31,260.7v1.58h2.4v1.55h-4.39l0-.79v-6.19l0-.79h4.36v1.55h-2.37v1.54h2.11v1.55Z"/><path class="cls-2" d="M233.85,260.7v1.58h2.4v1.55h-4.39l0-.79v-6.19l0-.79h4.36v1.55h-2.37v1.54H236v1.55Z"/><path class="cls-2" d="M241.82,261v.45c0,.72.39,1.08,1,1.08a.68.68,0,0,0,.77-.72c0-.48-.32-.77-1.13-1.23l-.87-.49a2.11,2.11,0,0,1-1.33-2c0-1.46,1.15-2.21,2.6-2.21a2.28,2.28,0,0,1,2.57,2.4v.32h-1.74v-.21c0-.75-.33-1.08-.88-1.08s-.74.21-.74.64c0,.26.11.52,1,1l.88.48a2.46,2.46,0,0,1,1.58,2.22c0,1.44-1,2.26-2.62,2.26s-2.91-.68-2.91-2.4V261Z"/><circle class="cls-4" cx="184.28" cy="185.68" r="160.75"/><path class="cls-5" d="M79.52,219.83l1.67-10.64,11.65-82.9,1.32-10.63h25.37l-1.66,10.63L107.65,199h31.21l-2.93,20.83Z"/><path class="cls-5" d="M287.42,152.52H262.56l.18-1.31C264.22,140.72,265,135,258,135s-7.8,5.68-9.28,16.17l-4.64,33.07c-1.68,11.95-2.48,17.63,5.2,17.63,8.51,0,9.45-6.71,10.41-13.55l.86-6.12h-9.84l2.7-19.23H286l-8,56.82h-7.17l-3.46-7.43h-.17c-6.82,5.83-14,9.18-24.15,9.18-27.54,0-25.79-24.33-23.31-42L223,156c2.7-19.23,6.75-42.1,38.46-42.1,28.53,0,28.75,18.65,26.09,37.58Z"/><path class="cls-5" d="M192.59,115.66H158.21l-1.32,10.63-11.65,82.9-1.67,10.64h25.37l1.33-10.64,4.65-33.07h3.5c7.84,0,9.86,3.5,8.67,11.95l-2.91,20.69c-.61,4.36-.75,8.88.45,11.07h24l.2-1.46c-1.07-4.22-.52-8.16.36-14.42l2.23-15.88c1.68-11.95-2.75-20.84-11.13-22.88l0-.28c9.23-3.94,15.5-8.17,17.55-22.73l.1-.73C220.34,124.84,212.28,115.66,192.59,115.66Zm-1.51,26.71a10.86,10.86,0,0,1,1.16,1.69,12.41,12.41,0,0,1-19.93,14.64l-1.23.74a2.13,2.13,0,0,1-2.22-3.64l1.23-.75a12.4,12.4,0,0,1,5.09-15.14l23.39-14.24,5.39,8.85Z"/></svg>